<?xml version="1.0" encoding="utf-8"?>

<!-- Generator: Adobe Illustrator 24.3.0, SVG Export Plug-In . SVG Version: 6.00 Build 0)  -->

<svg version="1.1"  xmlns="http://www.w3.org/2000/svg" xmlns:xlink="http://www.w3.org/1999/xlink" x="0px" y="0px"

	 viewBox="0 0 750 500" style="enable-background:new 0 0 750 500;" xml:space="preserve"><style type="text/css">

<?xml version="1.0" encoding="utf-8"?>

<!-- Generator: Adobe Illustrator 24.3.0, SVG Export Plug-In . SVG Version: 6.00 Build 0)  -->

<svg version="1.1"  xmlns="http://www.w3.org/2000/svg" xmlns:xlink="http://www.w3.org/1999/xlink" x="0px" y="0px"

	 viewBox="0 0 750 500" style="enable-background:new 0 0 750 500;" xml:space="preserve">	.st0{fill:#FFFFFF;}

<style type="text/css">

	.st0{fill:#FFFFFF;}

</style>

<g>

	<g>

		<g>

			<g>

				<rect y="-17.5" class="st0" width="84.9" height="5"/>

				<rect x="135.5" y="-16.9" class="st0" width="67.9" height="4"/>

				<polygon class="st0" points="268.3,-16.5 268.3,-13.3 305,-13.3 305,30.9 308.2,30.9 308.2,-16.5 				"/>

				<rect x="305.4" y="126.3" class="st0" width="2.6" height="43.5"/>

				<rect x="305.6" y="284.6" class="st0" width="2" height="34.8"/>

				<polygon class="st0" points="307.5,458.5 305.9,458.5 305.9,489.5 307.5,489.9 				"/>

				<rect x="103.2" y="514.2" class="st0" width="22.3" height="1.3"/>

				<rect x="-15.4" y="397.6" class="st0" width="1" height="17.8"/>

				<rect x="-15.3" y="201" class="st0" width="0.8" height="14.2"/>

				<rect x="-15.2" class="st0" width="0.7" height="11.4"/>

				<rect y="-11.5" class="st0" width="84.9" height="5"/>

				<rect x="135.5" y="-10.9" class="st0" width="67.9" height="4"/>

				<polygon class="st0" points="268.3,-10.5 268.3,-7.3 299,-7.3 299,30.9 302.2,30.9 302.2,-10.5 				"/>

				<rect x="299.4" y="126.3" class="st0" width="2.6" height="43.5"/>

				<rect x="299.6" y="284.6" class="st0" width="2" height="34.8"/>

				<polygon class="st0" points="301.5,458.5 299.9,458.5 299.9,488.2 301.5,488.6 				"/>

				<rect x="103.2" y="508.2" class="st0" width="22.3" height="1.3"/>

				<rect x="-9.4" y="397.6" class="st0" width="1" height="17.8"/>

				<rect x="-9.3" y="201" class="st0" width="0.8" height="14.2"/>

				<rect x="-9.2" class="st0" width="0.7" height="11.4"/>

				<rect y="-5.5" class="st0" width="84.9" height="5"/>

				<rect x="135.5" y="-4.9" class="st0" width="67.9" height="4"/>

				<polygon class="st0" points="268.3,-4.5 268.3,-1.3 293,-1.3 293,30.9 296.2,30.9 296.2,-4.5 				"/>

				<rect x="293.4" y="126.3" class="st0" width="2.6" height="43.5"/>

				<rect x="293.6" y="284.6" class="st0" width="2" height="34.8"/>

				<polygon class="st0" points="295.5,458.5 293.9,458.5 293.9,486.8 295.5,487.2 				"/>

				<rect x="103.2" y="502.2" class="st0" width="22.3" height="1.3"/>

				<rect x="-3.4" y="397.6" class="st0" width="1" height="17.8"/>

				<rect x="-3.3" y="201" class="st0" width="0.8" height="14.2"/>

				<rect x="-3.2" class="st0" width="0.7" height="11.4"/>

				<rect y="0.5" class="st0" width="84.9" height="5"/>

				<rect x="135.5" y="1.1" class="st0" width="67.9" height="4"/>

				<polygon class="st0" points="268.3,1.5 268.3,4.7 287,4.7 287,30.9 290.2,30.9 290.2,1.5 				"/>

				<rect x="287.4" y="126.3" class="st0" width="2.6" height="43.5"/>

				<rect x="287.6" y="284.6" class="st0" width="2" height="34.8"/>

				<polygon class="st0" points="289.5,458.5 287.9,458.5 287.9,485.5 289.5,485.9 				"/>

				<rect x="103.2" y="496.2" class="st0" width="22.3" height="1.3"/>

				<rect x="2.6" y="397.6" class="st0" width="1" height="17.8"/>

				<rect x="2.7" y="201" class="st0" width="0.8" height="14.2"/>

				<rect x="2.8" class="st0" width="0.7" height="11.4"/>

				<rect y="6.5" class="st0" width="84.9" height="5"/>

				<rect x="135.5" y="7.1" class="st0" width="67.9" height="4"/>

				<polygon class="st0" points="268.3,7.5 268.3,10.7 281,10.7 281,30.9 284.2,30.9 284.2,7.5 				"/>

				<rect x="281.4" y="126.3" class="st0" width="2.6" height="43.5"/>

				<rect x="281.6" y="284.6" class="st0" width="2" height="34.8"/>

				<polygon class="st0" points="283.5,458.5 281.9,458.5 281.9,484.1 283.5,484.5 				"/>

				<rect x="103.2" y="490.2" class="st0" width="22.3" height="1.3"/>

				<rect x="8.6" y="397.6" class="st0" width="1" height="17.8"/>

				<rect x="8.7" y="201" class="st0" width="0.8" height="14.2"/>

				<rect x="8.8" class="st0" width="0.7" height="11.4"/>

				<rect y="12.5" class="st0" width="84.9" height="5"/>

				<rect x="135.5" y="13.1" class="st0" width="67.9" height="4"/>

				<polygon class="st0" points="268.3,13.5 268.3,16.7 275,16.7 275,30.9 278.2,30.9 278.2,13.5 				"/>

				<rect x="275.4" y="126.3" class="st0" width="2.6" height="43.5"/>

				<rect x="275.6" y="284.6" class="st0" width="2" height="34.8"/>

				<polygon class="st0" points="277.5,458.5 275.9,458.5 275.9,482.8 277.5,483.1 				"/>

				<rect x="103.2" y="484.2" class="st0" width="22.3" height="1.3"/>

				<rect x="14.6" y="397.6" class="st0" width="1" height="17.8"/>

				<rect x="14.7" y="201" class="st0" width="0.8" height="14.2"/>

				<rect x="14.8" class="st0" width="0.7" height="11.4"/>

			</g>

		</g>

	</g>

</g>

<g>

	<g>

		<g>

			<g>

				<path class="st0" d="M816.2,285.9l1.4-4.8c-29.6-8.5-59.1-17.5-88.3-27.8l-1.7,4.7C756.9,268.4,786.5,277.4,816.2,285.9z"/>

				<path class="st0" d="M675.6,237l1.6-3.7c-11.5-5.1-22.9-10.7-34.1-17.2c-5.6-3.3-11.1-6.8-16.5-10.8c-2.7-2-5.4-4.1-8-6.4

					c-2.6-2.3-5.2-4.7-7.6-7.4l-2.9,2.7c2.6,2.8,5.3,5.3,8,7.7c2.7,2.3,5.5,4.5,8.2,6.6c5.6,4.1,11.2,7.7,16.9,11

					C652.5,226.2,664,231.8,675.6,237z"/>

				<path class="st0" d="M615.4,110.3l2.4,2.1c7-7.8,14.2-14.6,20.9-21.5c6.7-6.8,13-13.6,18-20.5l-2.6-1.9

					c-4.7,6.7-11,13.3-17.6,20.1C629.8,95.5,622.6,102.4,615.4,110.3z"/>

				<rect x="588.9" y="13.7" class="st0" width="47" height="2.6"/>

				<path class="st0" d="M554.5,16.9l-4.8-0.8c1.1,0.6,2.2,1.2,3.3,2c0.5,0.4,1,0.8,1.5,1.1l1.2,1l0.6,0.5l0.2,0.1l0.1,0.1l0,0

					l0.1,0.1l0.9,1l1.4-1.5l-1-1l-0.2-0.2l-0.1,0l-0.1-0.1l-0.4-0.4l-0.9-0.7c-0.2-0.2-0.4-0.3-0.7-0.5

					C555.5,17.4,555,17.2,554.5,16.9z"/>

				<path class="st0" d="M578.1,178.2l-1.6-0.5c-3.2,9.9-6.7,19.5-10.3,29.1l1.5,0.6C571.4,197.8,574.9,188.1,578.1,178.2z"/>

				<path class="st0" d="M496.2,386.8l-1.3-0.4c-2.2,7.4-4.1,14.9-5.8,22.4l1.3,0.3C492.1,401.6,493.9,394.2,496.2,386.8z"/>

				<rect x="581.6" y="484.6" class="st0" width="19.3" height="1"/>

				<path class="st0" d="M778.5,436.3l0.5,0.7c3.9-2.8,7.8-5.8,11.6-8.8l-0.5-0.7C786.3,430.6,782.5,433.5,778.5,436.3z"/>

				<path class="st0" d="M826.5,287.2l0.3-0.6c-0.7-0.4-1.6-0.7-2.4-1l-2.4-0.9c-1.7-0.6-3.3-1.1-5-1.6l-0.2,0.6

					c1.7,0.5,3.3,1,5,1.6l2.4,0.9C825,286.6,825.8,286.8,826.5,287.2z"/>

				<path class="st0" d="M817.8,280.2l1.4-4.8c-29.5-8.5-58.9-17.5-88-27.7l-1.7,4.7C758.8,262.7,788.3,271.7,817.8,280.2z"/>

				<path class="st0" d="M678,231.5l1.6-3.7c-11.3-5.1-22.6-10.5-33.5-16.9c-5.4-3.2-10.8-6.6-16-10.4c-2.6-1.9-5.1-3.9-7.6-6.1

					c-2.5-2.2-4.9-4.5-7.2-6.9l-2.9,2.7c2.4,2.6,4.9,5,7.5,7.2c2.6,2.2,5.2,4.3,7.9,6.3c5.3,3.9,10.8,7.4,16.3,10.7

					C655.3,220.9,666.6,226.4,678,231.5z"/>

				<path class="st0" d="M619.9,114.3l2.4,2.1c6.8-7.5,13.9-14.4,20.7-21.3c6.8-6.9,13.3-13.8,18.6-21.2l-2.6-1.9

					c-5.1,7.1-11.5,14-18.2,20.8C634,99.8,626.8,106.6,619.9,114.3z"/>

				<rect x="588.9" y="7.7" class="st0" width="47" height="2.6"/>

				<path class="st0" d="M540.5,14.6l-4.8-0.8c3.1,1.5,6,3.3,8.9,5.2c1.4,0.9,2.8,2,4.1,3.1L551,24l1.1,1l0.3,0.2

					c0.1,0.1,0.1,0.1,0.3,0.3l0.9,0.9l1.4-1.5l-0.9-0.9c-0.2-0.2-0.2-0.2-0.3-0.3l-0.2-0.2l-0.9-0.8l-1.9-1.6

					c-1.1-0.8-2.1-1.7-3.3-2.4C545.3,17.2,542.9,15.8,540.5,14.6z"/>

				<path class="st0" d="M572.4,176.4l-1.6-0.5c-3.1,9.7-6.6,19.3-10.2,28.8l1.5,0.6C565.8,195.8,569.3,186.2,572.4,176.4z"/>

				<path class="st0" d="M490.4,385.1l-1.3-0.4c-2.3,7.5-4.1,15.2-5.9,22.8l1.3,0.3C486.3,400.2,488.1,392.6,490.4,385.1z"/>

				<rect x="581.6" y="490.6" class="st0" width="19.3" height="1"/>

				<path class="st0" d="M782,441.2l0.5,0.7c4-2.9,8-5.9,11.9-9l-0.5-0.7C790,435.3,786,438.3,782,441.2z"/>

				<path class="st0" d="M828.9,281.7l0.3-0.6c-0.8-0.4-1.7-0.7-2.6-1l-2.6-1c-1.8-0.6-3.6-1.1-5.4-1.7l-0.2,0.6

					c1.8,0.6,3.6,1.1,5.3,1.7l2.6,1C827.2,281,828.1,281.3,828.9,281.7z"/>

				<path class="st0" d="M819.5,274.4l1.4-4.8c-29.4-8.4-58.7-17.4-87.6-27.6l-1.7,4.7C760.6,256.9,790,265.9,819.5,274.4z"/>

				<path class="st0" d="M680.5,226l1.6-3.7c-11.2-5-22.3-10.4-32.9-16.6c-5.3-3.1-10.5-6.4-15.5-10.1c-2.5-1.8-4.9-3.8-7.2-5.8

					c-2.3-2-4.6-4.2-6.7-6.5l-2.9,2.7c2.2,2.4,4.6,4.6,7,6.8c2.4,2.1,4.9,4.1,7.5,6c5.1,3.8,10.4,7.1,15.8,10.3

					C658,215.5,669.2,221,680.5,226z"/>

				<path class="st0" d="M624.3,118.3l2.4,2.1c6.6-7.3,13.7-14.1,20.5-21.1c6.8-7,13.6-14.1,19.2-21.9l-2.6-1.9

					c-5.4,7.6-12.1,14.6-18.9,21.5C638.2,104,631.1,110.9,624.3,118.3z"/>

				<rect x="588.9" y="1.7" class="st0" width="47" height="2.6"/>

				<path class="st0" d="M526.5,12.3l-4.8-0.8c5,2.5,9.8,5.4,14.4,8.5c1.2,0.7,2.3,1.6,3.4,2.5l3.3,2.5c1.1,0.9,2.2,1.9,3.2,2.8

					l1.6,1.4c0.3,0.2,0.5,0.4,0.8,0.7l0.8,0.9l1.4-1.5l-0.9-0.9c-0.3-0.3-0.5-0.4-0.7-0.7l-1.4-1.3c-1-0.8-1.9-1.7-2.9-2.5l-2.9-2.2

					c-1-0.7-1.9-1.5-2.9-2.1C535,16.9,530.9,14.5,526.5,12.3z"/>

				<path class="st0" d="M566.7,174.6l-1.6-0.5c-3.1,9.6-6.5,19.1-10.1,28.5l1.5,0.6C560.1,193.7,563.6,184.2,566.7,174.6z"/>

				<path class="st0" d="M484.6,383.4l-1.3-0.4c-2.3,7.7-4.2,15.4-6,23.2l1.3,0.3C480.5,398.8,482.4,391,484.6,383.4z"/>

				<rect x="581.6" y="496.6" class="st0" width="19.3" height="1"/>

				<path class="st0" d="M785.5,446.1l0.5,0.7c4.1-3,8.2-6,12.2-9.2l-0.5-0.7C793.7,440.1,789.6,443.1,785.5,446.1z"/>

				<path class="st0" d="M831.3,276.2l0.3-0.6c-0.9-0.4-1.8-0.8-2.8-1.1l-2.8-1.1c-1.9-0.6-3.8-1.2-5.7-1.8l-0.2,0.6

					c1.9,0.6,3.8,1.2,5.7,1.8l2.8,1.1C829.5,275.4,830.4,275.8,831.3,276.2z"/>

				<path class="st0" d="M821.1,268.6l1.4-4.8c-29.4-8.4-58.6-17.4-87.3-27.5l-1.7,4.7C762.4,251.2,791.7,260.2,821.1,268.6z"/>

				<path class="st0" d="M682.9,220.5l1.6-3.7c-11.1-4.9-22-10.2-32.3-16.3c-5.2-3-10.2-6.2-14.9-9.7c-2.4-1.7-4.7-3.6-6.9-5.5

					c-2.2-1.9-4.3-3.9-6.2-6l-2.9,2.7c2,2.2,4.2,4.3,6.5,6.3c2.3,2,4.7,3.9,7.1,5.7c4.9,3.6,10,6.9,15.3,10

					C660.8,210.2,671.8,215.5,682.9,220.5z"/>

				<path class="st0" d="M628.8,122.3l2.4,2.1c6.4-7.1,13.4-13.9,20.4-20.9c6.9-7,13.8-14.3,19.8-22.7l-2.6-1.9

					c-5.8,8.1-12.6,15.3-19.5,22.3C642.4,108.3,635.3,115.1,628.8,122.3z"/>

				<rect x="588.9" y="-4.3" class="st0" width="47" height="2.6"/>

				<path class="st0" d="M507.6,9.1l-9.9-1.7l4.1,1.7c1.4,0.6,2.5,1.1,3.8,1.7l7.5,3.4l3.8,1.7l3.2,1.7l6.3,3.3l1.6,0.8l0.4,0.2

					l0.3,0.2l0.6,0.4l2.5,1.7l5.1,3.5c1.5,1.2,2.9,2.4,4.3,3.6l2.2,1.8c0.3,0.3,0.8,0.6,1,0.9l0.8,0.8l1.4-1.5l-0.8-0.8

					c-0.3-0.3-0.6-0.6-1-0.8l-2-1.7c-1.3-1.1-2.6-2.3-4-3.4l-4.4-3.1c-1.5-1-2.8-2.1-4.6-3.1l-5.1-3l-2.6-1.5l-2.9-1.4l-5.8-2.9

					c-1-0.5-1.9-1-2.9-1.4L507.6,9.1z"/>

				<path class="st0" d="M561,172.7l-1.6-0.5c-3,9.5-6.4,18.8-10,28.2l1.5,0.6C554.5,191.6,557.9,182.2,561,172.7z"/>

				<path class="st0" d="M478.9,381.7l-1.3-0.4c-2.3,7.8-4.3,15.6-6.1,23.5l1.3,0.3C474.6,397.3,476.6,389.5,478.9,381.7z"/>

				<rect x="581.6" y="502.6" class="st0" width="19.3" height="1"/>

				<path class="st0" d="M789,451l0.5,0.7c4.2-3,8.4-6.2,12.4-9.4l-0.5-0.7C797.3,444.8,793.2,447.9,789,451z"/>

				<path class="st0" d="M833.7,270.7l0.3-0.6c-1-0.5-2-0.8-3-1.2l-3-1.1c-2-0.7-4-1.3-6.1-1.9l-0.2,0.6c2,0.6,4,1.3,6,1.9l3,1.1

					C831.7,269.9,832.7,270.2,833.7,270.7z"/>

				<path class="st0" d="M822.8,262.9l1.4-4.8c-29.3-8.4-58.4-17.3-86.9-27.4l-1.7,4.7C764.3,245.5,793.4,254.4,822.8,262.9z"/>

				<path class="st0" d="M685.4,215l1.6-3.7c-10.9-4.9-21.6-10.1-31.7-16c-5-2.9-9.9-6-14.4-9.4c-2.3-1.7-4.4-3.4-6.5-5.2

					c-2-1.8-4-3.6-5.7-5.5l-2.9,2.7c1.9,2,3.9,3.9,6,5.8c2.2,1.8,4.4,3.7,6.7,5.4c4.7,3.4,9.6,6.6,14.8,9.6

					C663.5,204.9,674.3,210.1,685.4,215z"/>

				<path class="st0" d="M633.3,126.3l2.4,2.1c6.2-6.9,13.2-13.6,20.2-20.7c7-7.1,14.1-14.6,20.4-23.4l-2.6-1.9

					c-6.1,8.6-13.1,15.9-20.1,23C646.6,112.6,639.6,119.4,633.3,126.3z"/>

				<rect x="588.9" y="-10.3" class="st0" width="47" height="2.6"/>

				<path class="st0" d="M478.7,4.2l-9.9-1.7l7,2.8l6.4,2.6l12.6,5.1l6.3,2.5l4.9,2.2l9.8,4.4l2.4,1.1l0.6,0.3

					c0.2,0.1,0.3,0.2,0.5,0.3l0.9,0.5l3.5,2.2l7,4.4c0.3,0.2,0.5,0.4,0.8,0.6l0.7,0.6l1.4,1.1l2.7,2.2l2.7,2.2l0.7,0.6

					c0.2,0.2,0.5,0.4,0.6,0.5l0.7,0.8l1.4-1.5l-0.8-0.8c-0.1-0.1-0.4-0.3-0.6-0.5l-0.6-0.5L538,34l-2.5-2.1l-1.3-1l-0.6-0.5

					c-0.2-0.2-0.4-0.3-0.7-0.5l-6.4-4.1l-3.2-2l-0.8-0.5c-0.1-0.1-0.3-0.2-0.4-0.3l-0.5-0.3l-2.2-1l-8.6-4.1l-4.3-2l-5.4-2.3

					l-10.9-4.5l-2.7-1.1l-2.8-1.2L478.7,4.2z"/>

				<path class="st0" d="M555.3,170.9l-1.6-0.5c-3,9.3-6.4,18.6-9.9,27.9l1.5,0.6C548.9,189.5,552.3,180.2,555.3,170.9z"/>

				<path class="st0" d="M473.1,380.1l-1.3-0.4c-2.3,7.9-4.3,15.9-6.2,23.9l1.3,0.3C468.8,395.9,470.8,387.9,473.1,380.1z"/>

				<rect x="581.6" y="508.6" class="st0" width="19.3" height="1"/>

				<path class="st0" d="M792.5,455.8l0.5,0.7c4.3-3.1,8.6-6.3,12.7-9.6l-0.5-0.7C801,449.6,796.8,452.8,792.5,455.8z"/>

				<path class="st0" d="M836.1,265.2l0.3-0.6c-1-0.5-2.1-0.9-3.2-1.3l-3.2-1.2c-2.1-0.7-4.3-1.4-6.4-2.1l-0.2,0.6

					c2.1,0.7,4.3,1.3,6.4,2l3.2,1.2C834,264.3,835.1,264.7,836.1,265.2z"/>

				<path class="st0" d="M824.4,257.1l1.4-4.8c-29.2-8.4-58.2-17.2-86.6-27.3l-1.7,4.7C766.1,239.8,795.2,248.7,824.4,257.1z"/>

				<path class="st0" d="M687.8,209.6l1.6-3.7c-10.8-4.8-21.3-9.9-31.1-15.7c-4.9-2.9-9.6-5.9-13.9-9c-2.2-1.6-4.2-3.2-6.1-4.9

					c-1.9-1.7-3.6-3.3-5.2-5l-2.9,2.7c1.7,1.8,3.6,3.6,5.5,5.3c2,1.7,4.1,3.4,6.4,5.1c4.4,3.3,9.3,6.4,14.2,9.3

					C666.3,199.5,676.9,204.7,687.8,209.6z"/>

				<path class="st0" d="M637.7,130.4l2.4,2.1c6-6.7,13-13.4,20-20.5c7.1-7.2,14.4-14.8,21-24.1l-2.6-1.9

					c-6.5,9.1-13.7,16.6-20.7,23.7C650.8,116.9,643.8,123.6,637.7,130.4z"/>

				<rect x="588.9" y="-16.3" class="st0" width="47" height="2.6"/>

				<path class="st0" d="M449.9-0.7L440-2.3l36.6,13.9l8.8,3.3l6.6,2.8l13.3,5.5l3.3,1.4l0.8,0.3c0.2,0.1,0.4,0.2,0.6,0.3l1.1,0.7

					l4.5,2.6l9,5.3c0.2,0.1,0.4,0.2,0.5,0.3l0.4,0.3l0.8,0.7l1.6,1.3l3.3,2.6l3.3,2.6l0.8,0.7l0.4,0.3l0.2,0.2l0.1,0.1l0.7,0.7

					l1.4-1.5l-0.7-0.7l-0.1-0.1l-0.2-0.1l-0.4-0.3l-0.8-0.6l-3.1-2.5l-3.1-2.5l-1.5-1.2l-0.8-0.6l-0.4-0.3c-0.1-0.1-0.3-0.2-0.5-0.3

					l-8.3-5l-4.2-2.5l-1-0.6c-0.2-0.1-0.3-0.2-0.5-0.3l-0.8-0.3l-3-1.3l-12.1-5.2l-6-2.6l-7.9-3.1L449.9-0.7z"/>

				<path class="st0" d="M549.6,169l-1.6-0.5c-2.9,9.2-6.3,18.4-9.8,27.6l1.5,0.6C543.2,187.5,546.6,178.3,549.6,169z"/>

				<path class="st0" d="M467.4,378.4l-1.3-0.4c-2.4,8-4.4,16.1-6.3,24.3l1.3,0.3C463,394.4,465,386.3,467.4,378.4z"/>

				<rect x="581.6" y="514.6" class="st0" width="19.3" height="1"/>

				<path class="st0" d="M795.9,460.7l0.5,0.7c4.4-3.2,8.8-6.4,13-9.9l-0.5-0.7C804.7,454.3,800.3,457.6,795.9,460.7z"/>

				<path class="st0" d="M838.5,259.7l0.3-0.6c-1.1-0.5-2.2-0.9-3.4-1.4l-3.4-1.3c-2.3-0.8-4.5-1.5-6.8-2.2l-0.2,0.6

					c2.2,0.7,4.5,1.4,6.7,2.2l3.4,1.3C836.3,258.8,837.4,259.2,838.5,259.7z"/>

			</g>

		</g>

	</g>

</g>

<g>

	<g>

		<g>

			<g>

				<path class="st0" d="M362,181.1l3.7-3.4l-3.4-4.1l-1.7-2c-0.6-0.7-1.1-1.4-1.6-2.2l-3.2-4.4c-1-1.5-1.9-3.1-2.9-4.6

					c-3.7-6.3-7-13-9.1-20.1c-2.2-7.1-3.5-14.4-4-21.7c-0.5-7.3-0.1-14.4,0.7-21.3l-5-0.6c-0.8,7.1-1.2,14.5-0.7,22.2

					c0.5,7.6,1.9,15.4,4.2,22.9c2.2,7.5,5.7,14.6,9.6,21.2c1,1.6,2,3.3,3,4.9l3.3,4.6c0.6,0.7,1.1,1.5,1.7,2.3l1.8,2.1L362,181.1z"

					/>

				<path class="st0" d="M344.6,51.2l3.9,0.7c0.8-4.7,1.4-9.3,1.6-13.7c0.2-4.4,0-8.6-0.5-12.6l-0.6-2.9c-0.1-0.5-0.2-1-0.4-1.4

					l-0.4-1.4l-0.4-1.4l-0.5-1.4c-0.4-1.1-0.5-1.4-0.6-1.7c-0.6-1.1-1-2.8-2.6-2.3l-1.2,4c0.2-0.1,0.3,0.2,0.3,0.3c0,0,0,0,0.4,1.1

					l0.5,1.2l0.3,1.3l0.4,1.3c0.1,0.4,0.3,0.9,0.3,1.3c0.2,0.9,0.3,1.8,0.5,2.7c0.5,3.7,0.7,7.6,0.5,11.8

					C345.9,42.2,345.4,46.6,344.6,51.2z"/>

				<rect x="240.6" y="13.3" class="st0" width="49" height="3.2"/>

				<polygon class="st0" points="164.1,16.3 162.6,13.7 161,13.7 161,31.9 163.6,31.9 163.6,16.3 				"/>

				<path class="st0" d="M171.4,128.4l-1.9,0.8c1.5,3.7,3.8,7.6,6.3,11.4c2.6,3.9,5.5,7.8,8.6,11.7l1.6-1.3

					c-3.1-3.8-5.9-7.7-8.5-11.5C175.1,135.7,172.9,131.9,171.4,128.4z"/>

				

					<rect x="231.7" y="279.5" transform="matrix(0.1495 -0.9888 0.9888 0.1495 -69.4435 479.9111)" class="st0" width="25.1" height="1.6"/>

				

					<rect x="206.6" y="462.2" transform="matrix(0.1495 -0.9888 0.9888 0.1495 -273.4454 607.8972)" class="st0" width="20.1" height="1.3"/>

				<path class="st0" d="M321.6,484.4l0.9,1c0.1-0.5,0.1-1,0.2-1.4l0.1-0.7l0-0.2c0-0.1,0,0.1,0,0.1l0.1-0.5l0.4-2.1l-1-0.2

					l-0.4,2.1l-0.1,0.5c0,0.1,0-0.2,0-0.1l0,0.1l-0.1,0.5C321.7,483.8,321.7,484.1,321.6,484.4z"/>

				<path class="st0" d="M405.7,334.4l0.7,0.4c2.1-3.4,3.9-6.8,5.6-10.2l-0.8-0.4C409.6,327.6,407.8,331,405.7,334.4z"/>

				<polygon class="st0" points="370.3,187.1 370.8,186.6 364.2,179.2 363.7,179.6 				"/>

				<path class="st0" d="M366.5,177.1l3.7-3.4l-3.3-3.9l-1.6-1.9c-0.5-0.6-1-1.4-1.5-2l-3-4.1c-0.9-1.4-1.8-2.9-2.7-4.4

					c-3.5-5.9-6.5-12.2-8.5-18.8c-2-6.6-3.3-13.5-3.7-20.3c-0.4-6.8-0.1-13.6,0.6-20.2l-5-0.6c-0.8,6.8-1.1,13.9-0.7,21.1

					c0.5,7.2,1.8,14.5,3.9,21.5c2.1,7,5.3,13.7,9,19.9c1,1.5,1.9,3.1,2.9,4.6l3.1,4.3c0.5,0.7,1,1.5,1.6,2.1l1.7,2L366.5,177.1z"/>

				<path class="st0" d="M350.5,52.2l3.9,0.7c0.8-4.9,1.4-9.7,1.7-14.4c0.2-4.7,0-9.4-0.6-13.8l-0.6-3.3c-0.1-0.6-0.2-1.1-0.4-1.6

					l-0.5-1.6l-0.4-1.6l-0.6-1.6c-0.5-1.1-0.7-1.9-1-2.6l-1-2.1c-0.3-0.7-0.8-1.3-1.2-2c-0.5-1.9-2.4-1.2-3.9-1.3l-1.2,4

					c0.9,0.1,2.1-0.4,2.4,0.8c0.5,0.8,0.9,1.7,1.4,2.5c0.2,0.4,0.3,0.9,0.8,2l0.6,1.4l0.4,1.5l0.4,1.5c0.1,0.5,0.3,1,0.4,1.5

					l0.6,3.1c0.6,4.2,0.8,8.5,0.6,13C351.9,42.8,351.3,47.4,350.5,52.2z"/>

				<rect x="240.6" y="7.3" class="st0" width="49" height="3.2"/>

				<polygon class="st0" points="160.6,10.3 159.1,7.7 155,7.7 155,31.9 157.6,31.9 157.6,10.3 				"/>

				<path class="st0" d="M165.9,130.7l-1.9,0.8c1.7,4.2,4.2,8.3,6.9,12.4c2.7,4.1,5.7,8.1,8.9,12.1l1.6-1.3

					c-3.1-3.9-6.1-7.9-8.8-11.9C170,138.8,167.6,134.7,165.9,130.7z"/>

				

					<rect x="225.8" y="278.6" transform="matrix(0.1495 -0.9888 0.9888 0.1495 -73.6022 473.2823)" class="st0" width="25.1" height="1.6"/>

				

					<rect x="200.7" y="461.3" transform="matrix(0.1495 -0.9888 0.9888 0.1495 -277.6046 601.267)" class="st0" width="20.1" height="1.3"/>

				<path class="st0" d="M326.8,490.2l0.9,1c0.2-1.4,0.3-2.8,0.6-4.1l0.4-2.1c0-0.2,0.1-0.3,0.1-0.5l0.1-0.7l0.4-2.1l-1-0.2

					l-0.4,2.1l-0.1,0.7c0,0.2-0.1,0.3-0.1,0.5l-0.3,1.8C327.1,487.8,327,489,326.8,490.2z"/>

				<path class="st0" d="M410.9,337.4l0.7,0.4c2.1-3.5,4-7.1,5.8-10.7l-0.8-0.4C414.9,330.4,413,334,410.9,337.4z"/>

				<polygon class="st0" points="374.8,183.1 375.3,182.7 368.6,175.1 368.1,175.6 				"/>

				<path class="st0" d="M370.9,173.1l3.7-3.4c-8.5-9.6-15.6-20.6-19.4-32.9c-1.9-6.1-3-12.5-3.5-18.9c-0.4-6.4-0.1-12.8,0.6-19.2

					l-5-0.6c-0.7,6.6-1.1,13.3-0.6,20.1c0.4,6.8,1.7,13.5,3.7,20.1c1.9,6.6,4.9,12.8,8.4,18.6c0.9,1.4,1.8,2.9,2.7,4.3l3,4.1

					c0.5,0.7,1,1.4,1.5,2l1.6,1.9L370.9,173.1z"/>

				<path class="st0" d="M356.4,53.2l3.9,0.7c0.8-5,1.5-10,1.8-15.1c0.2-5,0.1-10.1-0.7-15.1l-0.7-3.7c-0.1-0.6-0.3-1.2-0.4-1.8

					l-0.5-1.8l-0.5-1.8l-0.7-1.8c-0.5-1.2-0.8-2.3-1.4-3.4l-1.6-3.2c-0.1-0.3-0.3-0.5-0.4-0.8l-0.5-0.8l-1-1.5l-1-1.5l-0.2-0.4

					c-0.1,0-0.1-0.2-0.1-0.1h-0.2h-0.9h-3.6l-1.2,4c1.7,0.2,4-0.7,4.6,1.6c0.5,0.8,1,1.5,1.4,2.4l1.2,2.5c0.4,0.8,0.7,1.7,1.1,2.8

					l0.6,1.6l0.5,1.7l0.5,1.7c0.2,0.6,0.3,1.1,0.4,1.7l0.7,3.4c0.7,4.7,0.8,9.4,0.6,14.3C357.9,43.4,357.2,48.3,356.4,53.2z"/>

				<rect x="240.6" y="1.3" class="st0" width="49" height="3.2"/>

				<polygon class="st0" points="157.1,4.3 155.6,1.7 149,1.7 149,31.9 151.6,31.9 151.6,4.3 				"/>

				<path class="st0" d="M160.4,133.1l-1.9,0.8c2,4.7,4.6,9.1,7.4,13.4c2.8,4.3,6,8.4,9.2,12.5l1.6-1.3c-3.2-4-6.3-8.1-9.1-12.4

					C164.8,141.9,162.3,137.5,160.4,133.1z"/>

				

					<rect x="219.8" y="277.7" transform="matrix(0.1495 -0.9888 0.9888 0.1495 -77.7592 466.6564)" class="st0" width="25.1" height="1.6"/>

				

					<rect x="194.7" y="460.4" transform="matrix(0.1495 -0.9888 0.9888 0.1495 -281.7629 594.6396)" class="st0" width="20.1" height="1.3"/>

				<path class="st0" d="M331.9,496l0.9,1l0.5-3.4c0.1-1.1,0.3-2.3,0.5-3.4l0.6-3.4c0-0.3,0.1-0.6,0.2-0.9l0.2-0.9l0.4-2l-1-0.2

					l-0.4,2l-0.2,0.9c-0.1,0.3-0.1,0.5-0.2,0.8l-0.5,3.2C332.5,491.7,332.3,493.9,331.9,496z"/>

				<path class="st0" d="M416.1,340.5l0.7,0.4c2.2-3.6,4.2-7.3,6.1-11.1l-0.8-0.4C420.2,333.2,418.2,336.9,416.1,340.5z"/>

				<polygon class="st0" points="379.4,179.2 379.9,178.8 373.1,171.1 372.6,171.6 				"/>

				<path class="st0" d="M375.4,169.1l3.7-3.4c-8-9.1-14.7-19.3-18.1-30.7c-1.7-5.7-2.8-11.5-3.2-17.5c-0.4-6-0.1-12,0.6-18.1

					l-5-0.6c-0.7,6.3-1,12.7-0.6,19c0.4,6.3,1.5,12.6,3.4,18.7C359.9,148.7,367,159.6,375.4,169.1z"/>

				<path class="st0" d="M362.3,54.2l3.9,0.7c0.9-5.2,1.5-10.4,1.9-15.8c0.2-5.4,0.1-10.8-0.7-16.3l-0.8-4.1c-0.1-0.7-0.3-1.4-0.5-2

					l-0.6-2l-0.6-2l-0.7-2l-0.8-2c-0.3-0.7-0.6-1.5-1-2.2l-2.3-4.4c-0.2-0.4-0.4-0.7-0.6-1.1L359,0l-1.3-2.1l-1.3-2.1l-0.3-0.5

					l-0.1-0.1c0-0.1-0.1-0.1-0.1-0.1l-0.3,0l-1.2,0l-4.9-0.1l-1.2,4l4,0l1,0l0.3,0c0.1,0,0.1,0.1,0.2,0.2l0.3,0.4l1.1,1.7l1.1,1.7

					l0.5,0.9c0.2,0.3,0.3,0.6,0.5,0.9l1.8,3.6c0.6,1.2,1,2.5,1.5,3.7l0.7,1.8l0.5,1.9l0.5,1.9c0.2,0.6,0.4,1.2,0.5,1.9l0.7,3.8

					c0.7,5.1,0.9,10.3,0.7,15.5C363.8,44,363.2,49.1,362.3,54.2z"/>

				<rect x="240.6" y="-4.7" class="st0" width="49" height="3.2"/>

				<polygon class="st0" points="153.6,-1.7 152.1,-4.3 143,-4.3 143,31.9 145.6,31.9 145.6,-1.7 				"/>

				<path class="st0" d="M154.9,135.4l-1.9,0.8c2.2,5.2,5,9.9,7.9,14.4c3,4.5,6.2,8.8,9.5,12.9l1.6-1.3c-3.3-4.1-6.4-8.4-9.4-12.8

					C159.7,145,157,140.4,154.9,135.4z"/>

				

					<rect x="213.9" y="276.8" transform="matrix(0.1495 -0.9888 0.9888 0.1495 -81.9199 460.0243)" class="st0" width="25.1" height="1.6"/>

				

					<rect x="188.8" y="459.6" transform="matrix(0.1495 -0.9888 0.9888 0.1495 -285.9216 588.0108)" class="st0" width="20.1" height="1.3"/>

				<path class="st0" d="M337.1,501.9l0.9,1l0.6-4.8l0.3-2.4l0.4-2.4l0.8-4.8c0.1-0.4,0.1-0.8,0.2-1.2l0.2-1.1l0.4-1.9l-1-0.2

					l-0.4,1.9l-0.2,1.1c-0.1,0.4-0.1,0.8-0.2,1.1l-0.8,4.6l-0.4,2.3l-0.3,2.3L337.1,501.9z"/>

				<path class="st0" d="M421.2,343.6l0.7,0.4c2.3-3.7,4.3-7.6,6.3-11.5l-0.8-0.4C425.5,336.1,423.5,339.9,421.2,343.6z"/>

				<polygon class="st0" points="383.9,175.3 384.4,174.8 377.6,167.1 377.1,167.5 				"/>

				<path class="st0" d="M379.8,165l3.7-3.4c-7.6-8.6-13.7-18-16.8-28.4c-1.6-5.2-2.6-10.5-2.9-16.1c-0.4-5.5-0.1-11.3,0.6-17.1

					l-5-0.6c-0.7,6-1,12.1-0.6,18c0.4,5.9,1.4,11.7,3.2,17.3C365.3,145.9,371.9,156.1,379.8,165z"/>

				<path class="st0" d="M368.3,55.2l3.9,0.7c0.9-5.3,1.6-10.8,1.9-16.5c0.3-5.7,0.1-11.6-0.8-17.5l-0.8-4.5

					c-0.1-0.7-0.3-1.5-0.5-2.2l-0.6-2.2l-0.6-2.2l-0.8-2.2L369,6.3c-0.3-0.9-0.7-1.9-1.3-2.8l-2.9-5.4c-0.2-0.5-0.5-0.9-0.7-1.4

					l-0.8-1.3l-1.6-2.6L360-9.8l-0.4-0.7l-0.1-0.2l-0.1-0.1c0,0-0.1,0-0.1,0l-0.4,0l-1.5-0.1l-6.1-0.2l-1.2,4l5.3,0.2l1.3,0l0.3,0

					c0,0,0.1,0,0.1,0l0,0.1l0.1,0.1l0.4,0.6l1.4,2.3l1.4,2.3l0.7,1.1c0.2,0.4,0.4,0.8,0.6,1.2l2.5,4.7c0.4,0.8,0.8,1.6,1.1,2.4

					l0.8,2.1l0.8,2l0.6,2.1l0.6,2.1c0.2,0.7,0.4,1.4,0.5,2.1l0.8,4.2c0.8,5.6,1,11.2,0.7,16.7C369.8,44.7,369.1,50,368.3,55.2z"/>

				<rect x="240.6" y="-10.7" class="st0" width="49" height="3.2"/>

				<polygon class="st0" points="150.1,-7.7 148.6,-10.3 137,-10.3 137,31.9 139.6,31.9 139.6,-7.7 				"/>

				<path class="st0" d="M149.3,137.7l-1.9,0.8c2.4,5.7,5.3,10.6,8.4,15.4c3.1,4.7,6.4,9.1,9.8,13.4l1.6-1.3

					c-3.4-4.2-6.6-8.6-9.7-13.2C154.5,148.1,151.6,143.2,149.3,137.7z"/>

				

					<rect x="208" y="275.9" transform="matrix(0.1495 -0.9888 0.9888 0.1495 -86.0786 453.3955)" class="st0" width="25.1" height="1.6"/>

				

					<rect x="182.9" y="458.7" transform="matrix(0.1495 -0.9888 0.9888 0.1495 -290.0803 581.382)" class="st0" width="20.1" height="1.3"/>

				<path class="st0" d="M342.4,507.8l0.9,1l0.8-6.2c0.3-2.1,0.6-4.1,0.9-6.2l1-6.2c0.1-0.5,0.2-1,0.3-1.5l0.3-1.3l0.4-1.9l-1-0.2

					l-0.4,1.9l-0.3,1.3c-0.1,0.5-0.2,1-0.3,1.5l-0.9,6c-0.3,2-0.6,4-0.9,6L342.4,507.8z"/>

				<path class="st0" d="M426.4,346.7l0.7,0.4c2.3-3.8,4.5-7.8,6.5-11.9l-0.8-0.4C430.8,338.9,428.7,342.9,426.4,346.7z"/>

				<polygon class="st0" points="388.4,171.3 388.9,170.9 382,163.1 381.5,163.5 				"/>

				<path class="st0" d="M384.3,161l3.7-3.4c-7.2-8.1-12.7-16.8-15.5-26.2c-1.4-4.7-2.3-9.6-2.7-14.7c-0.3-5.1-0.1-10.5,0.5-16

					l-5-0.6c-0.6,5.8-0.9,11.4-0.6,16.9c0.4,5.5,1.3,10.8,2.9,15.9C370.8,143.2,376.8,152.5,384.3,161z"/>

				<path class="st0" d="M374.2,56.2l3.9,0.7c0.9-5.5,1.7-11.2,2-17.2c0.3-6,0.1-12.3-0.8-18.8l-0.9-4.8c-0.1-0.8-0.4-1.6-0.6-2.4

					l-0.7-2.4l-0.7-2.4l-0.9-2.3l-1-2.6c-0.2-0.6-0.4-1.1-0.7-1.6c-0.3-0.6-0.6-1.1-0.9-1.7l-3.6-6.5l-0.9-1.6l-1-1.6l-2-3.2l-2-3.2

					l-0.5-0.8l-0.1-0.2l-0.1-0.1c0,0-0.1,0-0.1,0l-0.5,0l-1.8-0.1l-7.3-0.4l-1.2,4l6.5,0.3l1.6,0.1l0.4,0c0,0,0.1,0,0.1,0l0.1,0.1

					l0.1,0.2l0.4,0.7l1.7,2.8l1.7,2.8l0.9,1.4l0.8,1.4l3.1,5.8c0.6,1,1,2,1.4,2.9l0.9,2.4l0.8,2.2l0.7,2.3l0.6,2.3

					c0.2,0.8,0.4,1.5,0.6,2.3l0.9,4.6c0.9,6.1,1.1,12.1,0.8,17.9C375.8,45.3,375.1,50.8,374.2,56.2z"/>

				<rect x="240.6" y="-16.7" class="st0" width="49" height="3.2"/>

				<polygon class="st0" points="146.6,-13.7 145.1,-16.3 131,-16.3 131,31.9 133.6,31.9 133.6,-13.7 				"/>

				<path class="st0" d="M143.8,140l-1.9,0.8c2.6,6.2,5.7,11.4,9,16.3c3.2,4.9,6.7,9.4,10.1,13.8l1.6-1.3c-3.4-4.3-6.8-8.8-10-13.6

					C149.4,151.2,146.3,146,143.8,140z"/>

				

					<rect x="202" y="275" transform="matrix(0.1495 -0.9888 0.9888 0.1495 -90.2372 446.7668)" class="st0" width="25.1" height="1.6"/>

				

					<rect x="176.9" y="457.8" transform="matrix(0.1495 -0.9888 0.9888 0.1495 -294.2384 574.7545)" class="st0" width="20.1" height="1.3"/>

				<path class="st0" d="M347.7,513.7l0.9,1c0.7-5.1,1.3-10.1,2.1-15.2l1.1-7.6c0.1-0.6,0.2-1.3,0.3-1.9l0.3-1.5l0.4-1.8l-1-0.2

					l-0.4,1.8l-0.3,1.5c-0.1,0.6-0.2,1.2-0.3,1.8l-1.1,7.4C348.9,503.9,348.3,508.8,347.7,513.7z"/>

				<path class="st0" d="M431.5,349.7l0.7,0.4c2.4-3.9,4.6-8.1,6.8-12.3l-0.8-0.4C436.1,341.7,433.9,345.8,431.5,349.7z"/>

				<polygon class="st0" points="393,167.4 393.5,167 386.5,159.1 386,159.5 				"/>

			</g>

		</g>

	</g>

</g>

<g>

	<g>

		<g>

			<g>

				<path class="st0" d="M379.1,275.6l2.3-4.5c-12.4-6.4-24.7-13.1-36.7-20.5c-12-7.4-23.8-15.5-34.9-24.8l-3.2,3.8

					c11.4,9.6,23.3,17.7,35.5,25.2C354.1,262.4,366.5,269.2,379.1,275.6z"/>

				<path class="st0" d="M271,187.5l3.5-1.9c-3-5.5-5.6-11.4-7.4-17.6c-1.8-6.2-3-12.5-3.5-18.9c-0.5-6.3-0.3-12.6,0.3-18.6

					c0.6-6,1.5-11.8,2.5-17.3l-3.9-0.7c-1,5.6-2,11.5-2.5,17.7c-0.6,6.2-0.8,12.7-0.3,19.3c0.5,6.6,1.7,13.3,3.6,19.7

					C265.2,175.6,267.9,181.7,271,187.5z"/>

				<path class="st0" d="M263,61.6l2.8-1.5c-0.4-0.7-0.7-1.5-1.2-2.2l-1.4-2.2c-0.5-0.7-1-1.4-1.5-2.1c-0.3-0.4-0.5-0.7-0.8-1.1

					l-0.9-1c-2.2-2.8-4.9-5.5-7.6-8.1c-5.7-5.1-12.2-9.8-19.1-14.1l-1.7,2.7c6.8,4.2,13.2,8.8,18.7,13.8c2.6,2.5,5.2,5,7.3,7.7

					l0.8,1c0.3,0.3,0.5,0.7,0.7,1c0.5,0.7,1,1.3,1.4,2l1.3,2C262.3,60.2,262.6,61,263,61.6z"/>

				<rect x="110.4" y="13.7" class="st0" width="42.1" height="2.6"/>

				<polygon class="st0" points="16,16 13.9,14.1 13.9,34.3 16,34.3 				"/>

				<path class="st0" d="M97.1,128.1l-1.3,1c5.5,7.2,11.1,14.4,16.4,21.8l1.3-1C108.2,142.5,102.6,135.3,97.1,128.1z"/>

				<path class="st0" d="M198.7,306.6l-1.2,0.4l1.7,5.3c0.5,1.8,1,3.6,1.5,5.4c1,3.6,2.1,7.2,3,10.8l1.3-0.3c-0.9-3.7-2-7.3-3-10.9

					c-0.5-1.8-1-3.6-1.5-5.4L198.7,306.6z"/>

				<path class="st0" d="M204.6,484l-0.8,1.1c0.5,0,1,0,1.5-0.1c0.3,0,0.5,0,0.8,0l3.2-0.2l-0.1-1l-3.2,0.2l-0.5,0

					C205.3,484,205,484,204.6,484z"/>

				<polygon class="st0" points="360.6,420.9 361.2,421.5 363.6,419.4 366,417.2 368.3,414.9 370.6,412.7 370,412.1 367.8,414.3 

					365.4,416.5 363.1,418.7 				"/>

				<polygon class="st0" points="388.2,278.3 388.5,277.7 384.5,275.2 380.4,273 380.1,273.6 384.2,275.8 				"/>

				<path class="st0" d="M381.8,270.2l2.3-4.5c-12.3-6.3-24.5-13-36.3-20.3c-11.8-7.3-23.4-15.2-34.2-24.3l-3.2,3.8

					c11.1,9.3,22.8,17.3,34.8,24.7C357.1,257.1,369.4,263.9,381.8,270.2z"/>

				<path class="st0" d="M276.3,184.6l3.5-1.9c-2.8-5.2-5.2-10.7-6.9-16.4c-1.7-5.7-2.8-11.7-3.2-17.6c-0.5-5.9-0.3-11.8,0.2-17.6

					c0.5-5.8,1.5-11.4,2.4-16.8l-3.9-0.7c-1,5.5-1.9,11.2-2.5,17.2c-0.6,5.9-0.7,12.1-0.3,18.2c0.5,6.2,1.6,12.4,3.4,18.4

					C270.8,173.4,273.3,179.2,276.3,184.6z"/>

				<path class="st0" d="M268.4,58.9l2.8-1.5c-0.5-0.8-0.8-1.7-1.4-2.5l-1.5-2.5c-0.5-0.8-1.1-1.6-1.7-2.4c-0.3-0.4-0.6-0.8-0.9-1.2

					l-0.9-1.1c-2.4-3.1-5.3-5.9-8.2-8.7c-6-5.5-12.9-10.3-20-14.8l-1.7,2.7c7,4.4,13.7,9.1,19.5,14.4c2.8,2.7,5.6,5.4,7.9,8.4

					l0.9,1.1c0.3,0.4,0.5,0.8,0.8,1.1c0.5,0.8,1.1,1.5,1.6,2.3l1.4,2.3C267.6,57.3,267.9,58.1,268.4,58.9z"/>

				<rect x="110.4" y="7.7" class="st0" width="42.1" height="2.6"/>

				<polygon class="st0" points="10,10.2 7.9,8.3 7.9,34.3 10,34.3 				"/>

				<path class="st0" d="M92.4,131.8l-1.3,1c5.5,7.2,11,14.3,16.3,21.7l1.3-1C103.4,146.1,97.9,139,92.4,131.8z"/>

				<path class="st0" d="M193,308.4l-1.2,0.4l1.7,5.2c0.5,1.8,1,3.5,1.5,5.3c1,3.6,2,7.1,2.9,10.7l1.3-0.3

					c-0.9-3.6-1.9-7.1-2.9-10.7c-0.5-1.8-1-3.6-1.5-5.3L193,308.4z"/>

				<path class="st0" d="M200.3,490.2l-0.8,1.1c1.5,0,3-0.1,4.5-0.2c0.8,0,1.5-0.1,2.3-0.1l3.7-0.3l-0.1-1l-3.6,0.3

					c-0.7,0.1-1.3,0.1-2,0.1C202.9,490.1,201.6,490.2,200.3,490.2z"/>

				<polygon class="st0" points="364.6,425.4 365.2,426 367.7,423.8 370.1,421.5 372.5,419.3 374.9,416.9 374.3,416.3 371.9,418.7 

					369.5,420.9 367.1,423.2 				"/>

				<path class="st0" d="M391.5,273.2l0.4-0.6c-1.4-0.9-2.8-1.8-4.3-2.6l-4.4-2.4l-0.3,0.6l4.4,2.4

					C388.6,271.5,390,272.4,391.5,273.2z"/>

				<path class="st0" d="M384.5,264.9l2.3-4.5c-12.2-6.2-24.2-12.9-35.9-20.1c-11.7-7.2-23-15-33.5-23.8l-3.2,3.8

					c10.8,9.1,22.3,16.9,34.1,24.2C360.1,251.9,372.2,258.6,384.5,264.9z"/>

				<path class="st0" d="M281.5,181.8l3.5-1.9c-5.4-9.7-8.6-20.6-9.4-31.6c-0.4-5.5-0.3-11.1,0.2-16.6c0.5-5.5,1.4-10.9,2.4-16.3

					l-3.9-0.7c-1,5.4-1.9,11-2.4,16.7c-0.5,5.7-0.7,11.4-0.2,17.2C272.5,160.1,275.9,171.6,281.5,181.8z"/>

				<path class="st0" d="M273.7,56.2l2.8-1.5c-0.5-0.9-1-1.9-1.5-2.8l-1.7-2.7c-0.6-0.9-1.2-1.8-1.9-2.6c-0.3-0.4-0.6-0.9-0.9-1.3

					l-1-1.2c-2.6-3.4-5.7-6.4-8.9-9.4c-6.4-5.8-13.5-10.9-20.9-15.5l-1.7,2.7c7.3,4.5,14.2,9.5,20.4,15.1c3,2.9,6,5.8,8.5,9l1,1.2

					c0.3,0.4,0.6,0.8,0.9,1.2c0.6,0.8,1.2,1.7,1.8,2.5l1.6,2.6C272.8,54.4,273.2,55.3,273.7,56.2z"/>

				<rect x="110.4" y="1.7" class="st0" width="42.1" height="2.6"/>

				<polygon class="st0" points="4,4.4 1.9,2.5 1.9,34.3 4,34.3 				"/>

				<path class="st0" d="M87.6,135.4l-1.3,1c5.4,7.2,11,14.3,16.2,21.6l1.3-1C98.6,149.7,93.1,142.6,87.6,135.4z"/>

				<path class="st0" d="M187.2,310.2l-1.2,0.4l1.7,5.2c0.5,1.7,1,3.5,1.5,5.2c0.9,3.5,2,7,2.9,10.5l1.3-0.3

					c-0.9-3.5-1.9-7-2.9-10.5c-0.5-1.7-1-3.5-1.5-5.2L187.2,310.2z"/>

				<path class="st0" d="M195.9,496.4l-0.8,1.1c2.5,0,5-0.2,7.4-0.3c1.2-0.1,2.5-0.1,3.7-0.2l4.1-0.3l-0.1-1l-4,0.3

					c-1.2,0.1-2.3,0.1-3.5,0.2C200.5,496.2,198.2,496.4,195.9,496.4z"/>

				<path class="st0" d="M368.6,429.9l0.6,0.6l2.6-2.3l2.5-2.3c0.8-0.8,1.7-1.5,2.5-2.3l2.4-2.4l-0.6-0.6l-2.4,2.4l-2.5,2.3

					l-2.5,2.3L368.6,429.9z"/>

				<path class="st0" d="M394.8,268.2l0.4-0.6c-1.5-0.9-3-1.9-4.6-2.8l-4.7-2.6l-0.3,0.6l4.7,2.6

					C391.7,266.3,393.2,267.3,394.8,268.2z"/>

				<path class="st0" d="M387.2,259.6l2.3-4.5c-12.1-6.2-24-12.7-35.5-19.8c-11.5-7.1-22.6-14.7-32.8-23.3l-3.2,3.8

					c10.5,8.8,21.8,16.5,33.4,23.7C363.1,246.7,375.1,253.3,387.2,259.6z"/>

				<path class="st0" d="M286.8,178.9l3.5-1.9c-5-9-7.9-19-8.7-29.2c-0.8-10.3,0.6-20.7,2.5-31.4l-3.9-0.7c-1,5.4-1.8,10.8-2.3,16.2

					c-0.5,5.4-0.6,10.8-0.2,16.2C278.4,158.9,281.6,169.4,286.8,178.9z"/>

				<path class="st0" d="M279.1,53.4l2.8-1.5c-0.6-1-1.1-2.1-1.7-3.1l-1.9-3c-0.6-1-1.4-1.9-2-2.9c-0.3-0.5-0.7-1-1-1.4l-1.1-1.4

					c-2.9-3.7-6.2-6.9-9.5-10.1c-6.8-6.1-14.2-11.4-21.8-16.1l-1.7,2.7c7.5,4.7,14.7,9.8,21.3,15.8c3.2,3.1,6.4,6.2,9.2,9.7l1.1,1.3

					c0.3,0.4,0.7,0.9,1,1.4c0.6,0.9,1.3,1.8,1.9,2.7l1.8,2.9C278,51.4,278.5,52.5,279.1,53.4z"/>

				<rect x="110.4" y="-4.3" class="st0" width="42.1" height="2.6"/>

				<polygon class="st0" points="-2,-1.4 -4.1,-3.4 -4.1,34.3 -2,34.3 				"/>

				<path class="st0" d="M82.9,139.1l-1.3,1c5.4,7.1,10.9,14.2,16.1,21.4l1.3-1C93.8,153.3,88.3,146.2,82.9,139.1z"/>

				<path class="st0" d="M181.5,312.1l-1.2,0.4l1.7,5.1c0.5,1.7,1,3.4,1.4,5.1c0.9,3.4,2,6.8,2.8,10.3l1.3-0.3

					c-0.9-3.5-1.9-6.9-2.8-10.3c-0.5-1.7-0.9-3.4-1.5-5.1L181.5,312.1z"/>

				<path class="st0" d="M191.6,502.5l-0.7,1.1c3.4,0,6.9-0.2,10.3-0.3c1.7-0.1,3.4-0.1,5.2-0.2l4.6-0.3l-0.1-1l-4.5,0.3

					c-1.6,0.1-3.3,0.2-4.9,0.2C198.1,502.3,194.8,502.5,191.6,502.5z"/>

				<path class="st0" d="M372.6,434.4l0.6,0.6l2.6-2.3l2.6-2.4c0.8-0.8,1.7-1.6,2.5-2.4l2.5-2.5l-0.6-0.6l-2.5,2.4

					c-0.8,0.8-1.7,1.6-2.5,2.4l-2.5,2.4L372.6,434.4z"/>

				<path class="st0" d="M398.1,263.2l0.4-0.6c-1.6-1-3.2-2-4.9-3l-5-2.7l-0.3,0.6l5,2.7C394.8,261.2,396.4,262.2,398.1,263.2z"/>

				<path class="st0" d="M390,254.2l2.3-4.5c-12-6.1-23.7-12.6-35-19.6c-11.3-7-22.2-14.5-32.1-22.8l-3.2,3.8

					c10.2,8.5,21.3,16.1,32.7,23.2C366,241.5,377.9,248,390,254.2z"/>

				<path class="st0" d="M292.1,176l3.5-1.9c-4.6-8.4-7.3-17.4-8-26.8c-0.7-9.5,0.5-19.4,2.4-29.9l-3.9-0.7

					c-1.9,10.6-3.3,20.9-2.5,30.9C284.4,157.6,287.2,167.2,292.1,176z"/>

				<path class="st0" d="M284.4,50.7l2.8-1.5c-0.6-1.1-1.2-2.3-1.9-3.4l-2-3.3c-0.7-1.1-1.5-2.1-2.2-3.1c-0.4-0.5-0.7-1-1.1-1.5

					l-1.2-1.5c-3.1-4-6.6-7.4-10.1-10.7c-7.2-6.5-14.8-11.9-22.7-16.8l-1.7,2.7c7.7,4.8,15.2,10.1,22.2,16.4

					c3.4,3.2,6.8,6.6,9.8,10.4l1.1,1.4c0.4,0.5,0.7,1,1.1,1.5c0.7,1,1.4,2,2.1,3l1.9,3.1C283.3,48.5,283.8,49.6,284.4,50.7z"/>

				<rect x="110.4" y="-10.3" class="st0" width="42.1" height="2.6"/>

				<polygon class="st0" points="-8,-7.2 -10.1,-9.2 -10.1,34.3 -8,34.3 				"/>

				<path class="st0" d="M78.1,142.8l-1.3,1c5.4,7.1,10.8,14.1,16,21.3l1.3-1C89,156.9,83.5,149.9,78.1,142.8z"/>

				<path class="st0" d="M175.8,313.9l-1.2,0.4l1.6,5c0.5,1.7,0.9,3.4,1.4,5c0.9,3.4,1.9,6.7,2.8,10.1l1.3-0.3

					c-0.8-3.4-1.8-6.7-2.8-10.1c-0.5-1.7-0.9-3.4-1.4-5L175.8,313.9z"/>

				<path class="st0" d="M187.3,508.5l-0.7,1.1c4.3,0,8.8-0.2,13.2-0.3c2.2-0.1,4.4-0.1,6.6-0.3l5-0.4l-0.1-1l-4.9,0.4

					c-2.1,0.2-4.2,0.2-6.4,0.3C195.8,508.4,191.5,508.6,187.3,508.5z"/>

				<path class="st0" d="M376.5,438.9l0.6,0.6l2.7-2.4l2.6-2.4c0.9-0.8,1.8-1.6,2.6-2.5l2.6-2.5l-0.6-0.6l-2.5,2.5

					c-0.9,0.8-1.7,1.6-2.6,2.4l-2.6,2.4L376.5,438.9z"/>

				<path class="st0" d="M401.3,258.2l0.4-0.6c-1.7-1.1-3.4-2.2-5.1-3.2l-5.3-2.9l-0.3,0.6l5.2,2.9

					C398,256.1,399.6,257.2,401.3,258.2z"/>

				<path class="st0" d="M392.7,248.9l2.3-4.5c-11.8-6.1-23.5-12.5-34.6-19.3c-11.1-6.9-21.8-14.2-31.4-22.3l-3.2,3.8

					c9.8,8.3,20.7,15.7,32,22.7C369,236.3,380.7,242.7,392.7,248.9z"/>

				<path class="st0" d="M297.4,173.2l3.5-1.9c-4.3-7.7-6.6-15.8-7.3-24.4c-0.3-4.3-0.2-8.8,0.2-13.5c0.4-4.7,1.2-9.6,2.2-14.8

					l-3.9-0.7c-0.9,5.2-1.7,10.3-2.2,15.2c-0.5,4.9-0.6,9.6-0.2,14.2C290.3,156.3,292.8,165,297.4,173.2z"/>

				<path class="st0" d="M289.7,48l2.9-1.5c-0.7-1.2-1.3-2.5-2-3.7l-2.2-3.6c-0.8-1.2-1.6-2.2-2.4-3.4c-0.4-0.5-0.8-1.1-1.2-1.7

					l-1.3-1.6c-3.3-4.2-7-7.9-10.7-11.4c-7.5-6.8-15.5-12.4-23.6-17.5l-1.7,2.7c7.9,4.9,15.7,10.5,23.1,17.1

					c3.6,3.4,7.2,6.9,10.4,11l1.2,1.5c0.4,0.5,0.8,1.1,1.2,1.6c0.8,1.1,1.5,2.1,2.3,3.2l2.1,3.4C288.5,45.6,289.1,46.8,289.7,48z"/>

				<rect x="110.4" y="-16.3" class="st0" width="42.1" height="2.6"/>

				<polygon class="st0" points="-14,-13 -16.1,-15 -16.1,34.3 -14,34.3 				"/>

				<path class="st0" d="M73.4,146.4l-1.3,1c5.3,7,10.8,14,15.9,21.2l1.3-1C84.2,160.5,78.7,153.5,73.4,146.4z"/>

				<path class="st0" d="M170.1,315.7l-1.2,0.4l1.6,4.9c0.5,1.6,0.9,3.3,1.4,4.9c0.9,3.3,1.9,6.6,2.7,9.9l1.3-0.3

					c-0.8-3.3-1.8-6.6-2.7-9.9c-0.5-1.6-0.9-3.3-1.4-5L170.1,315.7z"/>

				<path class="st0" d="M183.1,514.6l-0.7,1.1c5.3,0.1,10.7-0.2,16-0.3c2.7-0.1,5.4-0.1,8.1-0.3l5.4-0.4l-0.1-1l-5.4,0.4

					c-2.6,0.2-5.2,0.2-7.8,0.3C193.4,514.4,188.2,514.6,183.1,514.6z"/>

				<path class="st0" d="M380.5,443.4l0.6,0.6l2.7-2.4l2.7-2.5c0.9-0.8,1.8-1.7,2.7-2.5l2.6-2.6l-0.6-0.6l-2.6,2.6

					c-0.9,0.8-1.8,1.7-2.7,2.5l-2.7,2.5L380.5,443.4z"/>

				<path class="st0" d="M404.6,253.2l0.4-0.6c-1.8-1.1-3.6-2.3-5.4-3.4l-5.6-3l-0.3,0.6l5.5,3C401.1,250.9,402.8,252.1,404.6,253.2data:image/svg+xml;charset=utf8,%3Csvg%20viewBox%3D%220%200%20512%20512%22%20width%3D%22512%22%20height%3D%22512%22%20version%3D%221.1%22%20xmlns%3D%22http%3A%2F%2Fwww.w3.org%2F2000%2Fsvg%22%3E%3Cfilter%20id%3D%22noise%22%3E%3CfeTurbulence%20type%3D%22fractalNoise%22%20baseFrequency%3D%220.875%22%20result%3D%22noise%22%20%2F%3E%3CfeColorMatrix%20type%3D%22matrix%22%20values%3D%220%200%200%200%200%200%200%200%200%200%200%200%200%200%200%200%200%200%200.0703125%200%22%20%2F%3E%3C%2Ffilter%3E%3Crect%20filter%3D%22url%28%23noise%29%22%20x%3D%220%22%20y%3D%220%22%20width%3D%22512%22%20height%3D%22512%22%20fill%3D%22transparent%22%20opacity%3D%221%22%20%2F%3E%3C%2Fsvg%3E

					z"/>

			</g>

		</g>

	</g>

</g>

</svg>

</style>

<g>

	<g>

		<g>

			<g>

				<rect y="-17.5" class="st0" width="84.9" height="5"/>

				<rect x="135.5" y="-16.9" class="st0" width="67.9" height="4"/>

				<polygon class="st0" points="268.3,-16.5 268.3,-13.3 305,-13.3 305,30.9 308.2,30.9 308.2,-16.5 				"/>

				<rect x="305.4" y="126.3" class="st0" width="2.6" height="43.5"/>

				<rect x="305.6" y="284.6" class="st0" width="2" height="34.8"/>

				<polygon class="st0" points="307.5,458.5 305.9,458.5 305.9,489.5 307.5,489.9 				"/>

				<rect x="103.2" y="514.2" class="st0" width="22.3" height="1.3"/>

				<rect x="-15.4" y="397.6" class="st0" width="1" height="17.8"/>

				<rect x="-15.3" y="201" class="st0" width="0.8" height="14.2"/>

				<rect x="-15.2" class="st0" width="0.7" height="11.4"/>

				<rect y="-11.5" class="st0" width="84.9" height="5"/>

				<rect x="135.5" y="-10.9" class="st0" width="67.9" height="4"/>

				<polygon class="st0" points="268.3,-10.5 268.3,-7.3 299,-7.3 299,30.9 302.2,30.9 302.2,-10.5 				"/>

				<rect x="299.4" y="126.3" class="st0" width="2.6" height="43.5"/>

				<rect x="299.6" y="284.6" class="st0" width="2" height="34.8"/>

				<polygon class="st0" points="301.5,458.5 299.9,458.5 299.9,488.2 301.5,488.6 				"/>

				<rect x="103.2" y="508.2" class="st0" width="22.3" height="1.3"/>

				<rect x="-9.4" y="397.6" class="st0" width="1" height="17.8"/>

				<rect x="-9.3" y="201" class="st0" width="0.8" height="14.2"/>

				<rect x="-9.2" class="st0" width="0.7" height="11.4"/>

				<rect y="-5.5" class="st0" width="84.9" height="5"/>

				<rect x="135.5" y="-4.9" class="st0" width="67.9" height="4"/>

				<polygon class="st0" points="268.3,-4.5 268.3,-1.3 293,-1.3 293,30.9 296.2,30.9 296.2,-4.5 				"/>

				<rect x="293.4" y="126.3" class="st0" width="2.6" height="43.5"/>

				<rect x="293.6" y="284.6" class="st0" width="2" height="34.8"/>

				<polygon class="st0" points="295.5,458.5 293.9,458.5 293.9,486.8 295.5,487.2 				"/>

				<rect x="103.2" y="502.2" class="st0" width="22.3" height="1.3"/>

				<rect x="-3.4" y="397.6" class="st0" width="1" height="17.8"/>

				<rect x="-3.3" y="201" class="st0" width="0.8" height="14.2"/>

				<rect x="-3.2" class="st0" width="0.7" height="11.4"/>

				<rect y="0.5" class="st0" width="84.9" height="5"/>

				<rect x="135.5" y="1.1" class="st0" width="67.9" height="4"/>

				<polygon class="st0" points="268.3,1.5 268.3,4.7 287,4.7 287,30.9 290.2,30.9 290.2,1.5 				"/>

				<rect x="287.4" y="126.3" class="st0" width="2.6" height="43.5"/>

				<rect x="287.6" y="284.6" class="st0" width="2" height="34.8"/>

				<polygon class="st0" points="289.5,458.5 287.9,458.5 287.9,485.5 289.5,485.9 				"/>

				<rect x="103.2" y="496.2" class="st0" width="22.3" height="1.3"/>

				<rect x="2.6" y="397.6" class="st0" width="1" height="17.8"/>

				<rect x="2.7" y="201" class="st0" width="0.8" height="14.2"/>

				<rect x="2.8" class="st0" width="0.7" height="11.4"/>

				<rect y="6.5" class="st0" width="84.9" height="5"/>

				<rect x="135.5" y="7.1" class="st0" width="67.9" height="4"/>

				<polygon class="st0" points="268.3,7.5 268.3,10.7 281,10.7 281,30.9 284.2,30.9 284.2,7.5 				"/>

				<rect x="281.4" y="126.3" class="st0" width="2.6" height="43.5"/>

				<rect x="281.6" y="284.6" class="st0" width="2" height="34.8"/>

				<polygon class="st0" points="283.5,458.5 281.9,458.5 281.9,484.1 283.5,484.5 				"/>

				<rect x="103.2" y="490.2" class="st0" width="22.3" height="1.3"/>

				<rect x="8.6" y="397.6" class="st0" width="1" height="17.8"/>

				<rect x="8.7" y="201" class="st0" width="0.8" height="14.2"/>

				<rect x="8.8" class="st0" width="0.7" height="11.4"/>

				<rect y="12.5" class="st0" width="84.9" height="5"/>

				<rect x="135.5" y="13.1" class="st0" width="67.9" height="4"/>

				<polygon class="st0" points="268.3,13.5 268.3,16.7 275,16.7 275,30.9 278.2,30.9 278.2,13.5 				"/>

				<rect x="275.4" y="126.3" class="st0" width="2.6" height="43.5"/>

				<rect x="275.6" y="284.6" class="st0" width="2" height="34.8"/>

				<polygon class="st0" points="277.5,458.5 275.9,458.5 275.9,482.8 277.5,483.1 				"/>

				<rect x="103.2" y="484.2" class="st0" width="22.3" height="1.3"/>

				<rect x="14.6" y="397.6" class="st0" width="1" height="17.8"/>

				<rect x="14.7" y="201" class="st0" width="0.8" height="14.2"/>

				<rect x="14.8" class="st0" width="0.7" height="11.4"/>

			</g>

		</g>

	</g>

</g>

<g>

	<g>

		<g>

			<g>

				<path class="st0" d="M816.2,285.9l1.4-4.8c-29.6-8.5-59.1-17.5-88.3-27.8l-1.7,4.7C756.9,268.4,786.5,277.4,816.2,285.9z"/>

				<path class="st0" d="M675.6,237l1.6-3.7c-11.5-5.1-22.9-10.7-34.1-17.2c-5.6-3.3-11.1-6.8-16.5-10.8c-2.7-2-5.4-4.1-8-6.4

					c-2.6-2.3-5.2-4.7-7.6-7.4l-2.9,2.7c2.6,2.8,5.3,5.3,8,7.7c2.7,2.3,5.5,4.5,8.2,6.6c5.6,4.1,11.2,7.7,16.9,11

					C652.5,226.2,664,231.8,675.6,237z"/>

				<path class="st0" d="M615.4,110.3l2.4,2.1c7-7.8,14.2-14.6,20.9-21.5c6.7-6.8,13-13.6,18-20.5l-2.6-1.9

					c-4.7,6.7-11,13.3-17.6,20.1C629.8,95.5,622.6,102.4,615.4,110.3z"/>

				<rect x="588.9" y="13.7" class="st0" width="47" height="2.6"/>

				<path class="st0" d="M554.5,16.9l-4.8-0.8c1.1,0.6,2.2,1.2,3.3,2c0.5,0.4,1,0.8,1.5,1.1l1.2,1l0.6,0.5l0.2,0.1l0.1,0.1l0,0

					l0.1,0.1l0.9,1l1.4-1.5l-1-1l-0.2-0.2l-0.1,0l-0.1-0.1l-0.4-0.4l-0.9-0.7c-0.2-0.2-0.4-0.3-0.7-0.5

					C555.5,17.4,555,17.2,554.5,16.9z"/>

				<path class="st0" d="M578.1,178.2l-1.6-0.5c-3.2,9.9-6.7,19.5-10.3,29.1l1.5,0.6C571.4,197.8,574.9,188.1,578.1,178.2z"/>

				<path class="st0" d="M496.2,386.8l-1.3-0.4c-2.2,7.4-4.1,14.9-5.8,22.4l1.3,0.3C492.1,401.6,493.9,394.2,496.2,386.8z"/>

				<rect x="581.6" y="484.6" class="st0" width="19.3" height="1"/>

				<path class="st0" d="M778.5,436.3l0.5,0.7c3.9-2.8,7.8-5.8,11.6-8.8l-0.5-0.7C786.3,430.6,782.5,433.5,778.5,436.3z"/>

				<path class="st0" d="M826.5,287.2l0.3-0.6c-0.7-0.4-1.6-0.7-2.4-1l-2.4-0.9c-1.7-0.6-3.3-1.1-5-1.6l-0.2,0.6

					c1.7,0.5,3.3,1,5,1.6l2.4,0.9C825,286.6,825.8,286.8,826.5,287.2z"/>

				<path class="st0" d="M817.8,280.2l1.4-4.8c-29.5-8.5-58.9-17.5-88-27.7l-1.7,4.7C758.8,262.7,788.3,271.7,817.8,280.2z"/>

				<path class="st0" d="M678,231.5l1.6-3.7c-11.3-5.1-22.6-10.5-33.5-16.9c-5.4-3.2-10.8-6.6-16-10.4c-2.6-1.9-5.1-3.9-7.6-6.1

					c-2.5-2.2-4.9-4.5-7.2-6.9l-2.9,2.7c2.4,2.6,4.9,5,7.5,7.2c2.6,2.2,5.2,4.3,7.9,6.3c5.3,3.9,10.8,7.4,16.3,10.7

					C655.3,220.9,666.6,226.4,678,231.5z"/>

				<path class="st0" d="M619.9,114.3l2.4,2.1c6.8-7.5,13.9-14.4,20.7-21.3c6.8-6.9,13.3-13.8,18.6-21.2l-2.6-1.9

					c-5.1,7.1-11.5,14-18.2,20.8C634,99.8,626.8,106.6,619.9,114.3z"/>

				<rect x="588.9" y="7.7" class="st0" width="47" height="2.6"/>

				<path class="st0" d="M540.5,14.6l-4.8-0.8c3.1,1.5,6,3.3,8.9,5.2c1.4,0.9,2.8,2,4.1,3.1L551,24l1.1,1l0.3,0.2

					c0.1,0.1,0.1,0.1,0.3,0.3l0.9,0.9l1.4-1.5l-0.9-0.9c-0.2-0.2-0.2-0.2-0.3-0.3l-0.2-0.2l-0.9-0.8l-1.9-1.6

					c-1.1-0.8-2.1-1.7-3.3-2.4C545.3,17.2,542.9,15.8,540.5,14.6z"/>

				<path class="st0" d="M572.4,176.4l-1.6-0.5c-3.1,9.7-6.6,19.3-10.2,28.8l1.5,0.6C565.8,195.8,569.3,186.2,572.4,176.4z"/>

				<path class="st0" d="M490.4,385.1l-1.3-0.4c-2.3,7.5-4.1,15.2-5.9,22.8l1.3,0.3C486.3,400.2,488.1,392.6,490.4,385.1z"/>

				<rect x="581.6" y="490.6" class="st0" width="19.3" height="1"/>

				<path class="st0" d="M782,441.2l0.5,0.7c4-2.9,8-5.9,11.9-9l-0.5-0.7C790,435.3,786,438.3,782,441.2z"/>

				<path class="st0" d="M828.9,281.7l0.3-0.6c-0.8-0.4-1.7-0.7-2.6-1l-2.6-1c-1.8-0.6-3.6-1.1-5.4-1.7l-0.2,0.6

					c1.8,0.6,3.6,1.1,5.3,1.7l2.6,1C827.2,281,828.1,281.3,828.9,281.7z"/>

				<path class="st0" d="M819.5,274.4l1.4-4.8c-29.4-8.4-58.7-17.4-87.6-27.6l-1.7,4.7C760.6,256.9,790,265.9,819.5,274.4z"/>

				<path class="st0" d="M680.5,226l1.6-3.7c-11.2-5-22.3-10.4-32.9-16.6c-5.3-3.1-10.5-6.4-15.5-10.1c-2.5-1.8-4.9-3.8-7.2-5.8

					c-2.3-2-4.6-4.2-6.7-6.5l-2.9,2.7c2.2,2.4,4.6,4.6,7,6.8c2.4,2.1,4.9,4.1,7.5,6c5.1,3.8,10.4,7.1,15.8,10.3

					C658,215.5,669.2,221,680.5,226z"/>

				<path class="st0" d="M624.3,118.3l2.4,2.1c6.6-7.3,13.7-14.1,20.5-21.1c6.8-7,13.6-14.1,19.2-21.9l-2.6-1.9

					c-5.4,7.6-12.1,14.6-18.9,21.5C638.2,104,631.1,110.9,624.3,118.3z"/>

				<rect x="588.9" y="1.7" class="st0" width="47" height="2.6"/>

				<path class="st0" d="M526.5,12.3l-4.8-0.8c5,2.5,9.8,5.4,14.4,8.5c1.2,0.7,2.3,1.6,3.4,2.5l3.3,2.5c1.1,0.9,2.2,1.9,3.2,2.8

					l1.6,1.4c0.3,0.2,0.5,0.4,0.8,0.7l0.8,0.9l1.4-1.5l-0.9-0.9c-0.3-0.3-0.5-0.4-0.7-0.7l-1.4-1.3c-1-0.8-1.9-1.7-2.9-2.5l-2.9-2.2

					c-1-0.7-1.9-1.5-2.9-2.1C535,16.9,530.9,14.5,526.5,12.3z"/>

				<path class="st0" d="M566.7,174.6l-1.6-0.5c-3.1,9.6-6.5,19.1-10.1,28.5l1.5,0.6C560.1,193.7,563.6,184.2,566.7,174.6z"/>

				<path class="st0" d="M484.6,383.4l-1.3-0.4c-2.3,7.7-4.2,15.4-6,23.2l1.3,0.3C480.5,398.8,482.4,391,484.6,383.4z"/>

				<rect x="581.6" y="496.6" class="st0" width="19.3" height="1"/>

				<path class="st0" d="M785.5,446.1l0.5,0.7c4.1-3,8.2-6,12.2-9.2l-0.5-0.7C793.7,440.1,789.6,443.1,785.5,446.1z"/>

				<path class="st0" d="M831.3,276.2l0.3-0.6c-0.9-0.4-1.8-0.8-2.8-1.1l-2.8-1.1c-1.9-0.6-3.8-1.2-5.7-1.8l-0.2,0.6

					c1.9,0.6,3.8,1.2,5.7,1.8l2.8,1.1C829.5,275.4,830.4,275.8,831.3,276.2z"/>

				<path class="st0" d="M821.1,268.6l1.4-4.8c-29.4-8.4-58.6-17.4-87.3-27.5l-1.7,4.7C762.4,251.2,791.7,260.2,821.1,268.6z"/>

				<path class="st0" d="M682.9,220.5l1.6-3.7c-11.1-4.9-22-10.2-32.3-16.3c-5.2-3-10.2-6.2-14.9-9.7c-2.4-1.7-4.7-3.6-6.9-5.5

					c-2.2-1.9-4.3-3.9-6.2-6l-2.9,2.7c2,2.2,4.2,4.3,6.5,6.3c2.3,2,4.7,3.9,7.1,5.7c4.9,3.6,10,6.9,15.3,10

					C660.8,210.2,671.8,215.5,682.9,220.5z"/>

				<path class="st0" d="M628.8,122.3l2.4,2.1c6.4-7.1,13.4-13.9,20.4-20.9c6.9-7,13.8-14.3,19.8-22.7l-2.6-1.9

					c-5.8,8.1-12.6,15.3-19.5,22.3C642.4,108.3,635.3,115.1,628.8,122.3z"/>

				<rect x="588.9" y="-4.3" class="st0" width="47" height="2.6"/>

				<path class="st0" d="M507.6,9.1l-9.9-1.7l4.1,1.7c1.4,0.6,2.5,1.1,3.8,1.7l7.5,3.4l3.8,1.7l3.2,1.7l6.3,3.3l1.6,0.8l0.4,0.2

					l0.3,0.2l0.6,0.4l2.5,1.7l5.1,3.5c1.5,1.2,2.9,2.4,4.3,3.6l2.2,1.8c0.3,0.3,0.8,0.6,1,0.9l0.8,0.8l1.4-1.5l-0.8-0.8

					c-0.3-0.3-0.6-0.6-1-0.8l-2-1.7c-1.3-1.1-2.6-2.3-4-3.4l-4.4-3.1c-1.5-1-2.8-2.1-4.6-3.1l-5.1-3l-2.6-1.5l-2.9-1.4l-5.8-2.9

					c-1-0.5-1.9-1-2.9-1.4L507.6,9.1z"/>

				<path class="st0" d="M561,172.7l-1.6-0.5c-3,9.5-6.4,18.8-10,28.2l1.5,0.6C554.5,191.6,557.9,182.2,561,172.7z"/>

				<path class="st0" d="M478.9,381.7l-1.3-0.4c-2.3,7.8-4.3,15.6-6.1,23.5l1.3,0.3C474.6,397.3,476.6,389.5,478.9,381.7z"/>

				<rect x="581.6" y="502.6" class="st0" width="19.3" height="1"/>

				<path class="st0" d="M789,451l0.5,0.7c4.2-3,8.4-6.2,12.4-9.4l-0.5-0.7C797.3,444.8,793.2,447.9,789,451z"/>

				<path class="st0" d="M833.7,270.7l0.3-0.6c-1-0.5-2-0.8-3-1.2l-3-1.1c-2-0.7-4-1.3-6.1-1.9l-0.2,0.6c2,0.6,4,1.3,6,1.9l3,1.1

					C831.7,269.9,832.7,270.2,833.7,270.7z"/>

				<path class="st0" d="M822.8,262.9l1.4-4.8c-29.3-8.4-58.4-17.3-86.9-27.4l-1.7,4.7C764.3,245.5,793.4,254.4,822.8,262.9z"/>

				<path class="st0" d="M685.4,215l1.6-3.7c-10.9-4.9-21.6-10.1-31.7-16c-5-2.9-9.9-6-14.4-9.4c-2.3-1.7-4.4-3.4-6.5-5.2

					c-2-1.8-4-3.6-5.7-5.5l-2.9,2.7c1.9,2,3.9,3.9,6,5.8c2.2,1.8,4.4,3.7,6.7,5.4c4.7,3.4,9.6,6.6,14.8,9.6

					C663.5,204.9,674.3,210.1,685.4,215z"/>

				<path class="st0" d="M633.3,126.3l2.4,2.1c6.2-6.9,13.2-13.6,20.2-20.7c7-7.1,14.1-14.6,20.4-23.4l-2.6-1.9

					c-6.1,8.6-13.1,15.9-20.1,23C646.6,112.6,639.6,119.4,633.3,126.3z"/>

				<rect x="588.9" y="-10.3" class="st0" width="47" height="2.6"/>

				<path class="st0" d="M478.7,4.2l-9.9-1.7l7,2.8l6.4,2.6l12.6,5.1l6.3,2.5l4.9,2.2l9.8,4.4l2.4,1.1l0.6,0.3

					c0.2,0.1,0.3,0.2,0.5,0.3l0.9,0.5l3.5,2.2l7,4.4c0.3,0.2,0.5,0.4,0.8,0.6l0.7,0.6l1.4,1.1l2.7,2.2l2.7,2.2l0.7,0.6

					c0.2,0.2,0.5,0.4,0.6,0.5l0.7,0.8l1.4-1.5l-0.8-0.8c-0.1-0.1-0.4-0.3-0.6-0.5l-0.6-0.5L538,34l-2.5-2.1l-1.3-1l-0.6-0.5

					c-0.2-0.2-0.4-0.3-0.7-0.5l-6.4-4.1l-3.2-2l-0.8-0.5c-0.1-0.1-0.3-0.2-0.4-0.3l-0.5-0.3l-2.2-1l-8.6-4.1l-4.3-2l-5.4-2.3

					l-10.9-4.5l-2.7-1.1l-2.8-1.2L478.7,4.2z"/>

				<path class="st0" d="M555.3,170.9l-1.6-0.5c-3,9.3-6.4,18.6-9.9,27.9l1.5,0.6C548.9,189.5,552.3,180.2,555.3,170.9z"/>

				<path class="st0" d="M473.1,380.1l-1.3-0.4c-2.3,7.9-4.3,15.9-6.2,23.9l1.3,0.3C468.8,395.9,470.8,387.9,473.1,380.1z"/>

				<rect x="581.6" y="508.6" class="st0" width="19.3" height="1"/>

				<path class="st0" d="M792.5,455.8l0.5,0.7c4.3-3.1,8.6-6.3,12.7-9.6l-0.5-0.7C801,449.6,796.8,452.8,792.5,455.8z"/>

				<path class="st0" d="M836.1,265.2l0.3-0.6c-1-0.5-2.1-0.9-3.2-1.3l-3.2-1.2c-2.1-0.7-4.3-1.4-6.4-2.1l-0.2,0.6

					c2.1,0.7,4.3,1.3,6.4,2l3.2,1.2C834,264.3,835.1,264.7,836.1,265.2z"/>

				<path class="st0" d="M824.4,257.1l1.4-4.8c-29.2-8.4-58.2-17.2-86.6-27.3l-1.7,4.7C766.1,239.8,795.2,248.7,824.4,257.1z"/>

				<path class="st0" d="M687.8,209.6l1.6-3.7c-10.8-4.8-21.3-9.9-31.1-15.7c-4.9-2.9-9.6-5.9-13.9-9c-2.2-1.6-4.2-3.2-6.1-4.9

					c-1.9-1.7-3.6-3.3-5.2-5l-2.9,2.7c1.7,1.8,3.6,3.6,5.5,5.3c2,1.7,4.1,3.4,6.4,5.1c4.4,3.3,9.3,6.4,14.2,9.3

					C666.3,199.5,676.9,204.7,687.8,209.6z"/>

				<path class="st0" d="M637.7,130.4l2.4,2.1c6-6.7,13-13.4,20-20.5c7.1-7.2,14.4-14.8,21-24.1l-2.6-1.9

					c-6.5,9.1-13.7,16.6-20.7,23.7C650.8,116.9,643.8,123.6,637.7,130.4z"/>

				<rect x="588.9" y="-16.3" class="st0" width="47" height="2.6"/>

				<path class="st0" d="M449.9-0.7L440-2.3l36.6,13.9l8.8,3.3l6.6,2.8l13.3,5.5l3.3,1.4l0.8,0.3c0.2,0.1,0.4,0.2,0.6,0.3l1.1,0.7

					l4.5,2.6l9,5.3c0.2,0.1,0.4,0.2,0.5,0.3l0.4,0.3l0.8,0.7l1.6,1.3l3.3,2.6l3.3,2.6l0.8,0.7l0.4,0.3l0.2,0.2l0.1,0.1l0.7,0.7

					l1.4-1.5l-0.7-0.7l-0.1-0.1l-0.2-0.1l-0.4-0.3l-0.8-0.6l-3.1-2.5l-3.1-2.5l-1.5-1.2l-0.8-0.6l-0.4-0.3c-0.1-0.1-0.3-0.2-0.5-0.3

					l-8.3-5l-4.2-2.5l-1-0.6c-0.2-0.1-0.3-0.2-0.5-0.3l-0.8-0.3l-3-1.3l-12.1-5.2l-6-2.6l-7.9-3.1L449.9-0.7z"/>

				<path class="st0" d="M549.6,169l-1.6-0.5c-2.9,9.2-6.3,18.4-9.8,27.6l1.5,0.6C543.2,187.5,546.6,178.3,549.6,169z"/>

				<path class="st0" d="M467.4,378.4l-1.3-0.4c-2.4,8-4.4,16.1-6.3,24.3l1.3,0.3C463,394.4,465,386.3,467.4,378.4z"/>

				<rect x="581.6" y="514.6" class="st0" width="19.3" height="1"/>

				<path class="st0" d="M795.9,460.7l0.5,0.7c4.4-3.2,8.8-6.4,13-9.9l-0.5-0.7C804.7,454.3,800.3,457.6,795.9,460.7z"/>

				<path class="st0" d="M838.5,259.7l0.3-0.6c-1.1-0.5-2.2-0.9-3.4-1.4l-3.4-1.3c-2.3-0.8-4.5-1.5-6.8-2.2l-0.2,0.6

					c2.2,0.7,4.5,1.4,6.7,2.2l3.4,1.3C836.3,258.8,837.4,259.2,838.5,259.7z"/>

			</g>

		</g>

	</g>

</g>

<g>

	<g>

		<g>

			<g>

				<path class="st0" d="M362,181.1l3.7-3.4l-3.4-4.1l-1.7-2c-0.6-0.7-1.1-1.4-1.6-2.2l-3.2-4.4c-1-1.5-1.9-3.1-2.9-4.6

					c-3.7-6.3-7-13-9.1-20.1c-2.2-7.1-3.5-14.4-4-21.7c-0.5-7.3-0.1-14.4,0.7-21.3l-5-0.6c-0.8,7.1-1.2,14.5-0.7,22.2

					c0.5,7.6,1.9,15.4,4.2,22.9c2.2,7.5,5.7,14.6,9.6,21.2c1,1.6,2,3.3,3,4.9l3.3,4.6c0.6,0.7,1.1,1.5,1.7,2.3l1.8,2.1L362,181.1z"

					/>

				<path class="st0" d="M344.6,51.2l3.9,0.7c0.8-4.7,1.4-9.3,1.6-13.7c0.2-4.4,0-8.6-0.5-12.6l-0.6-2.9c-0.1-0.5-0.2-1-0.4-1.4

					l-0.4-1.4l-0.4-1.4l-0.5-1.4c-0.4-1.1-0.5-1.4-0.6-1.7c-0.6-1.1-1-2.8-2.6-2.3l-1.2,4c0.2-0.1,0.3,0.2,0.3,0.3c0,0,0,0,0.4,1.1

					l0.5,1.2l0.3,1.3l0.4,1.3c0.1,0.4,0.3,0.9,0.3,1.3c0.2,0.9,0.3,1.8,0.5,2.7c0.5,3.7,0.7,7.6,0.5,11.8

					C345.9,42.2,345.4,46.6,344.6,51.2z"/>

				<rect x="240.6" y="13.3" class="st0" width="49" height="3.2"/>

				<polygon class="st0" points="164.1,16.3 162.6,13.7 161,13.7 161,31.9 163.6,31.9 163.6,16.3 				"/>

				<path class="st0" d="M171.4,128.4l-1.9,0.8c1.5,3.7,3.8,7.6,6.3,11.4c2.6,3.9,5.5,7.8,8.6,11.7l1.6-1.3

					c-3.1-3.8-5.9-7.7-8.5-11.5C175.1,135.7,172.9,131.9,171.4,128.4z"/>

				

					<rect x="231.7" y="279.5" transform="matrix(0.1495 -0.9888 0.9888 0.1495 -69.4435 479.9111)" class="st0" width="25.1" height="1.6"/>

				

					<rect x="206.6" y="462.2" transform="matrix(0.1495 -0.9888 0.9888 0.1495 -273.4454 607.8972)" class="st0" width="20.1" height="1.3"/>

				<path class="st0" d="M321.6,484.4l0.9,1c0.1-0.5,0.1-1,0.2-1.4l0.1-0.7l0-0.2c0-0.1,0,0.1,0,0.1l0.1-0.5l0.4-2.1l-1-0.2

					l-0.4,2.1l-0.1,0.5c0,0.1,0-0.2,0-0.1l0,0.1l-0.1,0.5C321.7,483.8,321.7,484.1,321.6,484.4z"/>

				<path class="st0" d="M405.7,334.4l0.7,0.4c2.1-3.4,3.9-6.8,5.6-10.2l-0.8-0.4C409.6,327.6,407.8,331,405.7,334.4z"/>

				<polygon class="st0" points="370.3,187.1 370.8,186.6 364.2,179.2 363.7,179.6 				"/>

				<path class="st0" d="M366.5,177.1l3.7-3.4l-3.3-3.9l-1.6-1.9c-0.5-0.6-1-1.4-1.5-2l-3-4.1c-0.9-1.4-1.8-2.9-2.7-4.4

					c-3.5-5.9-6.5-12.2-8.5-18.8c-2-6.6-3.3-13.5-3.7-20.3c-0.4-6.8-0.1-13.6,0.6-20.2l-5-0.6c-0.8,6.8-1.1,13.9-0.7,21.1

					c0.5,7.2,1.8,14.5,3.9,21.5c2.1,7,5.3,13.7,9,19.9c1,1.5,1.9,3.1,2.9,4.6l3.1,4.3c0.5,0.7,1,1.5,1.6,2.1l1.7,2L366.5,177.1z"/>

				<path class="st0" d="M350.5,52.2l3.9,0.7c0.8-4.9,1.4-9.7,1.7-14.4c0.2-4.7,0-9.4-0.6-13.8l-0.6-3.3c-0.1-0.6-0.2-1.1-0.4-1.6

					l-0.5-1.6l-0.4-1.6l-0.6-1.6c-0.5-1.1-0.7-1.9-1-2.6l-1-2.1c-0.3-0.7-0.8-1.3-1.2-2c-0.5-1.9-2.4-1.2-3.9-1.3l-1.2,4

					c0.9,0.1,2.1-0.4,2.4,0.8c0.5,0.8,0.9,1.7,1.4,2.5c0.2,0.4,0.3,0.9,0.8,2l0.6,1.4l0.4,1.5l0.4,1.5c0.1,0.5,0.3,1,0.4,1.5

					l0.6,3.1c0.6,4.2,0.8,8.5,0.6,13C351.9,42.8,351.3,47.4,350.5,52.2z"/>

				<rect x="240.6" y="7.3" class="st0" width="49" height="3.2"/>

				<polygon class="st0" points="160.6,10.3 159.1,7.7 155,7.7 155,31.9 157.6,31.9 157.6,10.3 				"/>

				<path class="st0" d="M165.9,130.7l-1.9,0.8c1.7,4.2,4.2,8.3,6.9,12.4c2.7,4.1,5.7,8.1,8.9,12.1l1.6-1.3

					c-3.1-3.9-6.1-7.9-8.8-11.9C170,138.8,167.6,134.7,165.9,130.7z"/>

				

					<rect x="225.8" y="278.6" transform="matrix(0.1495 -0.9888 0.9888 0.1495 -73.6022 473.2823)" class="st0" width="25.1" height="1.6"/>

				

					<rect x="200.7" y="461.3" transform="matrix(0.1495 -0.9888 0.9888 0.1495 -277.6046 601.267)" class="st0" width="20.1" height="1.3"/>

				<path class="st0" d="M326.8,490.2l0.9,1c0.2-1.4,0.3-2.8,0.6-4.1l0.4-2.1c0-0.2,0.1-0.3,0.1-0.5l0.1-0.7l0.4-2.1l-1-0.2

					l-0.4,2.1l-0.1,0.7c0,0.2-0.1,0.3-0.1,0.5l-0.3,1.8C327.1,487.8,327,489,326.8,490.2z"/>

				<path class="st0" d="M410.9,337.4l0.7,0.4c2.1-3.5,4-7.1,5.8-10.7l-0.8-0.4C414.9,330.4,413,334,410.9,337.4z"/>

				<polygon class="st0" points="374.8,183.1 375.3,182.7 368.6,175.1 368.1,175.6 				"/>

				<path class="st0" d="M370.9,173.1l3.7-3.4c-8.5-9.6-15.6-20.6-19.4-32.9c-1.9-6.1-3-12.5-3.5-18.9c-0.4-6.4-0.1-12.8,0.6-19.2

					l-5-0.6c-0.7,6.6-1.1,13.3-0.6,20.1c0.4,6.8,1.7,13.5,3.7,20.1c1.9,6.6,4.9,12.8,8.4,18.6c0.9,1.4,1.8,2.9,2.7,4.3l3,4.1

					c0.5,0.7,1,1.4,1.5,2l1.6,1.9L370.9,173.1z"/>

				<path class="st0" d="M356.4,53.2l3.9,0.7c0.8-5,1.5-10,1.8-15.1c0.2-5,0.1-10.1-0.7-15.1l-0.7-3.7c-0.1-0.6-0.3-1.2-0.4-1.8

					l-0.5-1.8l-0.5-1.8l-0.7-1.8c-0.5-1.2-0.8-2.3-1.4-3.4l-1.6-3.2c-0.1-0.3-0.3-0.5-0.4-0.8l-0.5-0.8l-1-1.5l-1-1.5l-0.2-0.4

					c-0.1,0-0.1-0.2-0.1-0.1h-0.2h-0.9h-3.6l-1.2,4c1.7,0.2,4-0.7,4.6,1.6c0.5,0.8,1,1.5,1.4,2.4l1.2,2.5c0.4,0.8,0.7,1.7,1.1,2.8

					l0.6,1.6l0.5,1.7l0.5,1.7c0.2,0.6,0.3,1.1,0.4,1.7l0.7,3.4c0.7,4.7,0.8,9.4,0.6,14.3C357.9,43.4,357.2,48.3,356.4,53.2z"/>

				<rect x="240.6" y="1.3" class="st0" width="49" height="3.2"/>

				<polygon class="st0" points="157.1,4.3 155.6,1.7 149,1.7 149,31.9 151.6,31.9 151.6,4.3 				"/>

				<path class="st0" d="M160.4,133.1l-1.9,0.8c2,4.7,4.6,9.1,7.4,13.4c2.8,4.3,6,8.4,9.2,12.5l1.6-1.3c-3.2-4-6.3-8.1-9.1-12.4

					C164.8,141.9,162.3,137.5,160.4,133.1z"/>

				

					<rect x="219.8" y="277.7" transform="matrix(0.1495 -0.9888 0.9888 0.1495 -77.7592 466.6564)" class="st0" width="25.1" height="1.6"/>

				

					<rect x="194.7" y="460.4" transform="matrix(0.1495 -0.9888 0.9888 0.1495 -281.7629 594.6396)" class="st0" width="20.1" height="1.3"/>

				<path class="st0" d="M331.9,496l0.9,1l0.5-3.4c0.1-1.1,0.3-2.3,0.5-3.4l0.6-3.4c0-0.3,0.1-0.6,0.2-0.9l0.2-0.9l0.4-2l-1-0.2

					l-0.4,2l-0.2,0.9c-0.1,0.3-0.1,0.5-0.2,0.8l-0.5,3.2C332.5,491.7,332.3,493.9,331.9,496z"/>

				<path class="st0" d="M416.1,340.5l0.7,0.4c2.2-3.6,4.2-7.3,6.1-11.1l-0.8-0.4C420.2,333.2,418.2,336.9,416.1,340.5z"/>

				<polygon class="st0" points="379.4,179.2 379.9,178.8 373.1,171.1 372.6,171.6 				"/>

				<path class="st0" d="M375.4,169.1l3.7-3.4c-8-9.1-14.7-19.3-18.1-30.7c-1.7-5.7-2.8-11.5-3.2-17.5c-0.4-6-0.1-12,0.6-18.1

					l-5-0.6c-0.7,6.3-1,12.7-0.6,19c0.4,6.3,1.5,12.6,3.4,18.7C359.9,148.7,367,159.6,375.4,169.1z"/>

				<path class="st0" d="M362.3,54.2l3.9,0.7c0.9-5.2,1.5-10.4,1.9-15.8c0.2-5.4,0.1-10.8-0.7-16.3l-0.8-4.1c-0.1-0.7-0.3-1.4-0.5-2

					l-0.6-2l-0.6-2l-0.7-2l-0.8-2c-0.3-0.7-0.6-1.5-1-2.2l-2.3-4.4c-0.2-0.4-0.4-0.7-0.6-1.1L359,0l-1.3-2.1l-1.3-2.1l-0.3-0.5

					l-0.1-0.1c0-0.1-0.1-0.1-0.1-0.1l-0.3,0l-1.2,0l-4.9-0.1l-1.2,4l4,0l1,0l0.3,0c0.1,0,0.1,0.1,0.2,0.2l0.3,0.4l1.1,1.7l1.1,1.7

					l0.5,0.9c0.2,0.3,0.3,0.6,0.5,0.9l1.8,3.6c0.6,1.2,1,2.5,1.5,3.7l0.7,1.8l0.5,1.9l0.5,1.9c0.2,0.6,0.4,1.2,0.5,1.9l0.7,3.8

					c0.7,5.1,0.9,10.3,0.7,15.5C363.8,44,363.2,49.1,362.3,54.2z"/>

				<rect x="240.6" y="-4.7" class="st0" width="49" height="3.2"/>

				<polygon class="st0" points="153.6,-1.7 152.1,-4.3 143,-4.3 143,31.9 145.6,31.9 145.6,-1.7 				"/>

				<path class="st0" d="M154.9,135.4l-1.9,0.8c2.2,5.2,5,9.9,7.9,14.4c3,4.5,6.2,8.8,9.5,12.9l1.6-1.3c-3.3-4.1-6.4-8.4-9.4-12.8

					C159.7,145,157,140.4,154.9,135.4z"/>

				

					<rect x="213.9" y="276.8" transform="matrix(0.1495 -0.9888 0.9888 0.1495 -81.9199 460.0243)" class="st0" width="25.1" height="1.6"/>

				

					<rect x="188.8" y="459.6" transform="matrix(0.1495 -0.9888 0.9888 0.1495 -285.9216 588.0108)" class="st0" width="20.1" height="1.3"/>

				<path class="st0" d="M337.1,501.9l0.9,1l0.6-4.8l0.3-2.4l0.4-2.4l0.8-4.8c0.1-0.4,0.1-0.8,0.2-1.2l0.2-1.1l0.4-1.9l-1-0.2

					l-0.4,1.9l-0.2,1.1c-0.1,0.4-0.1,0.8-0.2,1.1l-0.8,4.6l-0.4,2.3l-0.3,2.3L337.1,501.9z"/>

				<path class="st0" d="M421.2,343.6l0.7,0.4c2.3-3.7,4.3-7.6,6.3-11.5l-0.8-0.4C425.5,336.1,423.5,339.9,421.2,343.6z"/>

				<polygon class="st0" points="383.9,175.3 384.4,174.8 377.6,167.1 377.1,167.5 				"/>

				<path class="st0" d="M379.8,165l3.7-3.4c-7.6-8.6-13.7-18-16.8-28.4c-1.6-5.2-2.6-10.5-2.9-16.1c-0.4-5.5-0.1-11.3,0.6-17.1

					l-5-0.6c-0.7,6-1,12.1-0.6,18c0.4,5.9,1.4,11.7,3.2,17.3C365.3,145.9,371.9,156.1,379.8,165z"/>

				<path class="st0" d="M368.3,55.2l3.9,0.7c0.9-5.3,1.6-10.8,1.9-16.5c0.3-5.7,0.1-11.6-0.8-17.5l-0.8-4.5

					c-0.1-0.7-0.3-1.5-0.5-2.2l-0.6-2.2l-0.6-2.2l-0.8-2.2L369,6.3c-0.3-0.9-0.7-1.9-1.3-2.8l-2.9-5.4c-0.2-0.5-0.5-0.9-0.7-1.4

					l-0.8-1.3l-1.6-2.6L360-9.8l-0.4-0.7l-0.1-0.2l-0.1-0.1c0,0-0.1,0-0.1,0l-0.4,0l-1.5-0.1l-6.1-0.2l-1.2,4l5.3,0.2l1.3,0l0.3,0

					c0,0,0.1,0,0.1,0l0,0.1l0.1,0.1l0.4,0.6l1.4,2.3l1.4,2.3l0.7,1.1c0.2,0.4,0.4,0.8,0.6,1.2l2.5,4.7c0.4,0.8,0.8,1.6,1.1,2.4

					l0.8,2.1l0.8,2l0.6,2.1l0.6,2.1c0.2,0.7,0.4,1.4,0.5,2.1l0.8,4.2c0.8,5.6,1,11.2,0.7,16.7C369.8,44.7,369.1,50,368.3,55.2z"/>

				<rect x="240.6" y="-10.7" class="st0" width="49" height="3.2"/>

				<polygon class="st0" points="150.1,-7.7 148.6,-10.3 137,-10.3 137,31.9 139.6,31.9 139.6,-7.7 				"/>

				<path class="st0" d="M149.3,137.7l-1.9,0.8c2.4,5.7,5.3,10.6,8.4,15.4c3.1,4.7,6.4,9.1,9.8,13.4l1.6-1.3

					c-3.4-4.2-6.6-8.6-9.7-13.2C154.5,148.1,151.6,143.2,149.3,137.7z"/>

				

					<rect x="208" y="275.9" transform="matrix(0.1495 -0.9888 0.9888 0.1495 -86.0786 453.3955)" class="st0" width="25.1" height="1.6"/>

				

					<rect x="182.9" y="458.7" transform="matrix(0.1495 -0.9888 0.9888 0.1495 -290.0803 581.382)" class="st0" width="20.1" height="1.3"/>

				<path class="st0" d="M342.4,507.8l0.9,1l0.8-6.2c0.3-2.1,0.6-4.1,0.9-6.2l1-6.2c0.1-0.5,0.2-1,0.3-1.5l0.3-1.3l0.4-1.9l-1-0.2

					l-0.4,1.9l-0.3,1.3c-0.1,0.5-0.2,1-0.3,1.5l-0.9,6c-0.3,2-0.6,4-0.9,6L342.4,507.8z"/>

				<path class="st0" d="M426.4,346.7l0.7,0.4c2.3-3.8,4.5-7.8,6.5-11.9l-0.8-0.4C430.8,338.9,428.7,342.9,426.4,346.7z"/>

				<polygon class="st0" points="388.4,171.3 388.9,170.9 382,163.1 381.5,163.5 				"/>

				<path class="st0" d="M384.3,161l3.7-3.4c-7.2-8.1-12.7-16.8-15.5-26.2c-1.4-4.7-2.3-9.6-2.7-14.7c-0.3-5.1-0.1-10.5,0.5-16

					l-5-0.6c-0.6,5.8-0.9,11.4-0.6,16.9c0.4,5.5,1.3,10.8,2.9,15.9C370.8,143.2,376.8,152.5,384.3,161z"/>

				<path class="st0" d="M374.2,56.2l3.9,0.7c0.9-5.5,1.7-11.2,2-17.2c0.3-6,0.1-12.3-0.8-18.8l-0.9-4.8c-0.1-0.8-0.4-1.6-0.6-2.4

					l-0.7-2.4l-0.7-2.4l-0.9-2.3l-1-2.6c-0.2-0.6-0.4-1.1-0.7-1.6c-0.3-0.6-0.6-1.1-0.9-1.7l-3.6-6.5l-0.9-1.6l-1-1.6l-2-3.2l-2-3.2

					l-0.5-0.8l-0.1-0.2l-0.1-0.1c0,0-0.1,0-0.1,0l-0.5,0l-1.8-0.1l-7.3-0.4l-1.2,4l6.5,0.3l1.6,0.1l0.4,0c0,0,0.1,0,0.1,0l0.1,0.1

					l0.1,0.2l0.4,0.7l1.7,2.8l1.7,2.8l0.9,1.4l0.8,1.4l3.1,5.8c0.6,1,1,2,1.4,2.9l0.9,2.4l0.8,2.2l0.7,2.3l0.6,2.3

					c0.2,0.8,0.4,1.5,0.6,2.3l0.9,4.6c0.9,6.1,1.1,12.1,0.8,17.9C375.8,45.3,375.1,50.8,374.2,56.2z"/>

				<rect x="240.6" y="-16.7" class="st0" width="49" height="3.2"/>

				<polygon class="st0" points="146.6,-13.7 145.1,-16.3 131,-16.3 131,31.9 133.6,31.9 133.6,-13.7 				"/>

				<path class="st0" d="M143.8,140l-1.9,0.8c2.6,6.2,5.7,11.4,9,16.3c3.2,4.9,6.7,9.4,10.1,13.8l1.6-1.3c-3.4-4.3-6.8-8.8-10-13.6

					C149.4,151.2,146.3,146,143.8,140z"/>

				

					<rect x="202" y="275" transform="matrix(0.1495 -0.9888 0.9888 0.1495 -90.2372 446.7668)" class="st0" width="25.1" height="1.6"/>

				

					<rect x="176.9" y="457.8" transform="matrix(0.1495 -0.9888 0.9888 0.1495 -294.2384 574.7545)" class="st0" width="20.1" height="1.3"/>

				<path class="st0" d="M347.7,513.7l0.9,1c0.7-5.1,1.3-10.1,2.1-15.2l1.1-7.6c0.1-0.6,0.2-1.3,0.3-1.9l0.3-1.5l0.4-1.8l-1-0.2

					l-0.4,1.8l-0.3,1.5c-0.1,0.6-0.2,1.2-0.3,1.8l-1.1,7.4C348.9,503.9,348.3,508.8,347.7,513.7z"/>

				<path class="st0" d="M431.5,349.7l0.7,0.4c2.4-3.9,4.6-8.1,6.8-12.3l-0.8-0.4C436.1,341.7,433.9,345.8,431.5,349.7z"/>

				<polygon class="st0" points="393,167.4 393.5,167 386.5,159.1 386,159.5 				"/>

			</g>

		</g>

	</g>

</g>

<g>

	<g>

		<g>

			<g>

				<path class="st0" d="M379.1,275.6l2.3-4.5c-12.4-6.4-24.7-13.1-36.7-20.5c-12-7.4-23.8-15.5-34.9-24.8l-3.2,3.8

					c11.4,9.6,23.3,17.7,35.5,25.2C354.1,262.4,366.5,269.2,379.1,275.6z"/>

				<path class="st0" d="M271,187.5l3.5-1.9c-3-5.5-5.6-11.4-7.4-17.6c-1.8-6.2-3-12.5-3.5-18.9c-0.5-6.3-0.3-12.6,0.3-18.6

					c0.6-6,1.5-11.8,2.5-17.3l-3.9-0.7c-1,5.6-2,11.5-2.5,17.7c-0.6,6.2-0.8,12.7-0.3,19.3c0.5,6.6,1.7,13.3,3.6,19.7

					C265.2,175.6,267.9,181.7,271,187.5z"/>

				<path class="st0" d="M263,61.6l2.8-1.5c-0.4-0.7-0.7-1.5-1.2-2.2l-1.4-2.2c-0.5-0.7-1-1.4-1.5-2.1c-0.3-0.4-0.5-0.7-0.8-1.1

					l-0.9-1c-2.2-2.8-4.9-5.5-7.6-8.1c-5.7-5.1-12.2-9.8-19.1-14.1l-1.7,2.7c6.8,4.2,13.2,8.8,18.7,13.8c2.6,2.5,5.2,5,7.3,7.7

					l0.8,1c0.3,0.3,0.5,0.7,0.7,1c0.5,0.7,1,1.3,1.4,2l1.3,2C262.3,60.2,262.6,61,263,61.6z"/>

				<rect x="110.4" y="13.7" class="st0" width="42.1" height="2.6"/>

				<polygon class="st0" points="16,16 13.9,14.1 13.9,34.3 16,34.3 				"/>

				<path class="st0" d="M97.1,128.1l-1.3,1c5.5,7.2,11.1,14.4,16.4,21.8l1.3-1C108.2,142.5,102.6,135.3,97.1,128.1z"/>

				<path class="st0" d="M198.7,306.6l-1.2,0.4l1.7,5.3c0.5,1.8,1,3.6,1.5,5.4c1,3.6,2.1,7.2,3,10.8l1.3-0.3c-0.9-3.7-2-7.3-3-10.9

					c-0.5-1.8-1-3.6-1.5-5.4L198.7,306.6z"/>

				<path class="st0" d="M204.6,484l-0.8,1.1c0.5,0,1,0,1.5-0.1c0.3,0,0.5,0,0.8,0l3.2-0.2l-0.1-1l-3.2,0.2l-0.5,0

					C205.3,484,205,484,204.6,484z"/>

				<polygon class="st0" points="360.6,420.9 361.2,421.5 363.6,419.4 366,417.2 368.3,414.9 370.6,412.7 370,412.1 367.8,414.3 

					365.4,416.5 363.1,418.7 				"/>

				<polygon class="st0" points="388.2,278.3 388.5,277.7 384.5,275.2 380.4,273 380.1,273.6 384.2,275.8 				"/>

				<path class="st0" d="M381.8,270.2l2.3-4.5c-12.3-6.3-24.5-13-36.3-20.3c-11.8-7.3-23.4-15.2-34.2-24.3l-3.2,3.8

					c11.1,9.3,22.8,17.3,34.8,24.7C357.1,257.1,369.4,263.9,381.8,270.2z"/>

				<path class="st0" d="M276.3,184.6l3.5-1.9c-2.8-5.2-5.2-10.7-6.9-16.4c-1.7-5.7-2.8-11.7-3.2-17.6c-0.5-5.9-0.3-11.8,0.2-17.6

					c0.5-5.8,1.5-11.4,2.4-16.8l-3.9-0.7c-1,5.5-1.9,11.2-2.5,17.2c-0.6,5.9-0.7,12.1-0.3,18.2c0.5,6.2,1.6,12.4,3.4,18.4

					C270.8,173.4,273.3,179.2,276.3,184.6z"/>

				<path class="st0" d="M268.4,58.9l2.8-1.5c-0.5-0.8-0.8-1.7-1.4-2.5l-1.5-2.5c-0.5-0.8-1.1-1.6-1.7-2.4c-0.3-0.4-0.6-0.8-0.9-1.2

					l-0.9-1.1c-2.4-3.1-5.3-5.9-8.2-8.7c-6-5.5-12.9-10.3-20-14.8l-1.7,2.7c7,4.4,13.7,9.1,19.5,14.4c2.8,2.7,5.6,5.4,7.9,8.4

					l0.9,1.1c0.3,0.4,0.5,0.8,0.8,1.1c0.5,0.8,1.1,1.5,1.6,2.3l1.4,2.3C267.6,57.3,267.9,58.1,268.4,58.9z"/>

				<rect x="110.4" y="7.7" class="st0" width="42.1" height="2.6"/>

				<polygon class="st0" points="10,10.2 7.9,8.3 7.9,34.3 10,34.3 				"/>

				<path class="st0" d="M92.4,131.8l-1.3,1c5.5,7.2,11,14.3,16.3,21.7l1.3-1C103.4,146.1,97.9,139,92.4,131.8z"/>

				<path class="st0" d="M193,308.4l-1.2,0.4l1.7,5.2c0.5,1.8,1,3.5,1.5,5.3c1,3.6,2,7.1,2.9,10.7l1.3-0.3

					c-0.9-3.6-1.9-7.1-2.9-10.7c-0.5-1.8-1-3.6-1.5-5.3L193,308.4z"/>

				<path class="st0" d="M200.3,490.2l-0.8,1.1c1.5,0,3-0.1,4.5-0.2c0.8,0,1.5-0.1,2.3-0.1l3.7-0.3l-0.1-1l-3.6,0.3

					c-0.7,0.1-1.3,0.1-2,0.1C202.9,490.1,201.6,490.2,200.3,490.2z"/>

				<polygon class="st0" points="364.6,425.4 365.2,426 367.7,423.8 370.1,421.5 372.5,419.3 374.9,416.9 374.3,416.3 371.9,418.7 

					369.5,420.9 367.1,423.2 				"/>

				<path class="st0" d="M391.5,273.2l0.4-0.6c-1.4-0.9-2.8-1.8-4.3-2.6l-4.4-2.4l-0.3,0.6l4.4,2.4

					C388.6,271.5,390,272.4,391.5,273.2z"/>

				<path class="st0" d="M384.5,264.9l2.3-4.5c-12.2-6.2-24.2-12.9-35.9-20.1c-11.7-7.2-23-15-33.5-23.8l-3.2,3.8

					c10.8,9.1,22.3,16.9,34.1,24.2C360.1,251.9,372.2,258.6,384.5,264.9z"/>

				<path class="st0" d="M281.5,181.8l3.5-1.9c-5.4-9.7-8.6-20.6-9.4-31.6c-0.4-5.5-0.3-11.1,0.2-16.6c0.5-5.5,1.4-10.9,2.4-16.3

					l-3.9-0.7c-1,5.4-1.9,11-2.4,16.7c-0.5,5.7-0.7,11.4-0.2,17.2C272.5,160.1,275.9,171.6,281.5,181.8z"/>

				<path class="st0" d="M273.7,56.2l2.8-1.5c-0.5-0.9-1-1.9-1.5-2.8l-1.7-2.7c-0.6-0.9-1.2-1.8-1.9-2.6c-0.3-0.4-0.6-0.9-0.9-1.3

					l-1-1.2c-2.6-3.4-5.7-6.4-8.9-9.4c-6.4-5.8-13.5-10.9-20.9-15.5l-1.7,2.7c7.3,4.5,14.2,9.5,20.4,15.1c3,2.9,6,5.8,8.5,9l1,1.2

					c0.3,0.4,0.6,0.8,0.9,1.2c0.6,0.8,1.2,1.7,1.8,2.5l1.6,2.6C272.8,54.4,273.2,55.3,273.7,56.2z"/>

				<rect x="110.4" y="1.7" class="st0" width="42.1" height="2.6"/>

				<polygon class="st0" points="4,4.4 1.9,2.5 1.9,34.3 4,34.3 				"/>

				<path class="st0" d="M87.6,135.4l-1.3,1c5.4,7.2,11,14.3,16.2,21.6l1.3-1C98.6,149.7,93.1,142.6,87.6,135.4z"/>

				<path class="st0" d="M187.2,310.2l-1.2,0.4l1.7,5.2c0.5,1.7,1,3.5,1.5,5.2c0.9,3.5,2,7,2.9,10.5l1.3-0.3

					c-0.9-3.5-1.9-7-2.9-10.5c-0.5-1.7-1-3.5-1.5-5.2L187.2,310.2z"/>

				<path class="st0" d="M195.9,496.4l-0.8,1.1c2.5,0,5-0.2,7.4-0.3c1.2-0.1,2.5-0.1,3.7-0.2l4.1-0.3l-0.1-1l-4,0.3

					c-1.2,0.1-2.3,0.1-3.5,0.2C200.5,496.2,198.2,496.4,195.9,496.4z"/>

				<path class="st0" d="M368.6,429.9l0.6,0.6l2.6-2.3l2.5-2.3c0.8-0.8,1.7-1.5,2.5-2.3l2.4-2.4l-0.6-0.6l-2.4,2.4l-2.5,2.3

					l-2.5,2.3L368.6,429.9z"/>

				<path class="st0" d="M394.8,268.2l0.4-0.6c-1.5-0.9-3-1.9-4.6-2.8l-4.7-2.6l-0.3,0.6l4.7,2.6

					C391.7,266.3,393.2,267.3,394.8,268.2z"/>

				<path class="st0" d="M387.2,259.6l2.3-4.5c-12.1-6.2-24-12.7-35.5-19.8c-11.5-7.1-22.6-14.7-32.8-23.3l-3.2,3.8

					c10.5,8.8,21.8,16.5,33.4,23.7C363.1,246.7,375.1,253.3,387.2,259.6z"/>

				<path class="st0" d="M286.8,178.9l3.5-1.9c-5-9-7.9-19-8.7-29.2c-0.8-10.3,0.6-20.7,2.5-31.4l-3.9-0.7c-1,5.4-1.8,10.8-2.3,16.2

					c-0.5,5.4-0.6,10.8-0.2,16.2C278.4,158.9,281.6,169.4,286.8,178.9z"/>

				<path class="st0" d="M279.1,53.4l2.8-1.5c-0.6-1-1.1-2.1-1.7-3.1l-1.9-3c-0.6-1-1.4-1.9-2-2.9c-0.3-0.5-0.7-1-1-1.4l-1.1-1.4

					c-2.9-3.7-6.2-6.9-9.5-10.1c-6.8-6.1-14.2-11.4-21.8-16.1l-1.7,2.7c7.5,4.7,14.7,9.8,21.3,15.8c3.2,3.1,6.4,6.2,9.2,9.7l1.1,1.3

					c0.3,0.4,0.7,0.9,1,1.4c0.6,0.9,1.3,1.8,1.9,2.7l1.8,2.9C278,51.4,278.5,52.5,279.1,53.4z"/>

				<rect x="110.4" y="-4.3" class="st0" width="42.1" height="2.6"/>

				<polygon class="st0" points="-2,-1.4 -4.1,-3.4 -4.1,34.3 -2,34.3 				"/>

				<path class="st0" d="M82.9,139.1l-1.3,1c5.4,7.1,10.9,14.2,16.1,21.4l1.3-1C93.8,153.3,88.3,146.2,82.9,139.1z"/>

				<path class="st0" d="M181.5,312.1l-1.2,0.4l1.7,5.1c0.5,1.7,1,3.4,1.4,5.1c0.9,3.4,2,6.8,2.8,10.3l1.3-0.3

					c-0.9-3.5-1.9-6.9-2.8-10.3c-0.5-1.7-0.9-3.4-1.5-5.1L181.5,312.1z"/>

				<path class="st0" d="M191.6,502.5l-0.7,1.1c3.4,0,6.9-0.2,10.3-0.3c1.7-0.1,3.4-0.1,5.2-0.2l4.6-0.3l-0.1-1l-4.5,0.3

					c-1.6,0.1-3.3,0.2-4.9,0.2C198.1,502.3,194.8,502.5,191.6,502.5z"/>

				<path class="st0" d="M372.6,434.4l0.6,0.6l2.6-2.3l2.6-2.4c0.8-0.8,1.7-1.6,2.5-2.4l2.5-2.5l-0.6-0.6l-2.5,2.4

					c-0.8,0.8-1.7,1.6-2.5,2.4l-2.5,2.4L372.6,434.4z"/>

				<path class="st0" d="M398.1,263.2l0.4-0.6c-1.6-1-3.2-2-4.9-3l-5-2.7l-0.3,0.6l5,2.7C394.8,261.2,396.4,262.2,398.1,263.2z"/>

				<path class="st0" d="M390,254.2l2.3-4.5c-12-6.1-23.7-12.6-35-19.6c-11.3-7-22.2-14.5-32.1-22.8l-3.2,3.8

					c10.2,8.5,21.3,16.1,32.7,23.2C366,241.5,377.9,248,390,254.2z"/>

				<path class="st0" d="M292.1,176l3.5-1.9c-4.6-8.4-7.3-17.4-8-26.8c-0.7-9.5,0.5-19.4,2.4-29.9l-3.9-0.7

					c-1.9,10.6-3.3,20.9-2.5,30.9C284.4,157.6,287.2,167.2,292.1,176z"/>

				<path class="st0" d="M284.4,50.7l2.8-1.5c-0.6-1.1-1.2-2.3-1.9-3.4l-2-3.3c-0.7-1.1-1.5-2.1-2.2-3.1c-0.4-0.5-0.7-1-1.1-1.5

					l-1.2-1.5c-3.1-4-6.6-7.4-10.1-10.7c-7.2-6.5-14.8-11.9-22.7-16.8l-1.7,2.7c7.7,4.8,15.2,10.1,22.2,16.4

					c3.4,3.2,6.8,6.6,9.8,10.4l1.1,1.4c0.4,0.5,0.7,1,1.1,1.5c0.7,1,1.4,2,2.1,3l1.9,3.1C283.3,48.5,283.8,49.6,284.4,50.7z"/>

				<rect x="110.4" y="-10.3" class="st0" width="42.1" height="2.6"/>

				<polygon class="st0" points="-8,-7.2 -10.1,-9.2 -10.1,34.3 -8,34.3 				"/>

				<path class="st0" d="M78.1,142.8l-1.3,1c5.4,7.1,10.8,14.1,16,21.3l1.3-1C89,156.9,83.5,149.9,78.1,142.8z"/>

				<path class="st0" d="M175.8,313.9l-1.2,0.4l1.6,5c0.5,1.7,0.9,3.4,1.4,5c0.9,3.4,1.9,6.7,2.8,10.1l1.3-0.3

					c-0.8-3.4-1.8-6.7-2.8-10.1c-0.5-1.7-0.9-3.4-1.4-5L175.8,313.9z"/>

				<path class="st0" d="M187.3,508.5l-0.7,1.1c4.3,0,8.8-0.2,13.2-0.3c2.2-0.1,4.4-0.1,6.6-0.3l5-0.4l-0.1-1l-4.9,0.4

					c-2.1,0.2-4.2,0.2-6.4,0.3C195.8,508.4,191.5,508.6,187.3,508.5z"/>

				<path class="st0" d="M376.5,438.9l0.6,0.6l2.7-2.4l2.6-2.4c0.9-0.8,1.8-1.6,2.6-2.5l2.6-2.5l-0.6-0.6l-2.5,2.5

					c-0.9,0.8-1.7,1.6-2.6,2.4l-2.6,2.4L376.5,438.9z"/>

				<path class="st0" d="M401.3,258.2l0.4-0.6c-1.7-1.1-3.4-2.2-5.1-3.2l-5.3-2.9l-0.3,0.6l5.2,2.9

					C398,256.1,399.6,257.2,401.3,258.2z"/>

				<path class="st0" d="M392.7,248.9l2.3-4.5c-11.8-6.1-23.5-12.5-34.6-19.3c-11.1-6.9-21.8-14.2-31.4-22.3l-3.2,3.8

					c9.8,8.3,20.7,15.7,32,22.7C369,236.3,380.7,242.7,392.7,248.9z"/>

				<path class="st0" d="M297.4,173.2l3.5-1.9c-4.3-7.7-6.6-15.8-7.3-24.4c-0.3-4.3-0.2-8.8,0.2-13.5c0.4-4.7,1.2-9.6,2.2-14.8

					l-3.9-0.7c-0.9,5.2-1.7,10.3-2.2,15.2c-0.5,4.9-0.6,9.6-0.2,14.2C290.3,156.3,292.8,165,297.4,173.2z"/>

				<path class="st0" d="M289.7,48l2.9-1.5c-0.7-1.2-1.3-2.5-2-3.7l-2.2-3.6c-0.8-1.2-1.6-2.2-2.4-3.4c-0.4-0.5-0.8-1.1-1.2-1.7

					l-1.3-1.6c-3.3-4.2-7-7.9-10.7-11.4c-7.5-6.8-15.5-12.4-23.6-17.5l-1.7,2.7c7.9,4.9,15.7,10.5,23.1,17.1

					c3.6,3.4,7.2,6.9,10.4,11l1.2,1.5c0.4,0.5,0.8,1.1,1.2,1.6c0.8,1.1,1.5,2.1,2.3,3.2l2.1,3.4C288.5,45.6,289.1,46.8,289.7,48z"/>

				<rect x="110.4" y="-16.3" class="st0" width="42.1" height="2.6"/>

				<polygon class="st0" points="-14,-13 -16.1,-15 -16.1,34.3 -14,34.3 				"/>

				<path class="st0" d="M73.4,146.4l-1.3,1c5.3,7,10.8,14,15.9,21.2l1.3-1C84.2,160.5,78.7,153.5,73.4,146.4z"/>

				<path class="st0" d="M170.1,315.7l-1.2,0.4l1.6,4.9c0.5,1.6,0.9,3.3,1.4,4.9c0.9,3.3,1.9,6.6,2.7,9.9l1.3-0.3

					c-0.8-3.3-1.8-6.6-2.7-9.9c-0.5-1.6-0.9-3.3-1.4-5L170.1,315.7z"/>

				<path class="st0" d="M183.1,514.6l-0.7,1.1c5.3,0.1,10.7-0.2,16-0.3c2.7-0.1,5.4-0.1,8.1-0.3l5.4-0.4l-0.1-1l-5.4,0.4

					c-2.6,0.2-5.2,0.2-7.8,0.3C193.4,514.4,188.2,514.6,183.1,514.6z"/>

				<path class="st0" d="M380.5,443.4l0.6,0.6l2.7-2.4l2.7-2.5c0.9-0.8,1.8-1.7,2.7-2.5l2.6-2.6l-0.6-0.6l-2.6,2.6

					c-0.9,0.8-1.8,1.7-2.7,2.5l-2.7,2.5L380.5,443.4z"/>

				<path class="st0" d="M404.6,253.2l0.4-0.6c-1.8-1.1-3.6-2.3-5.4-3.4l-5.6-3l-0.3,0.6l5.5,3C401.1,250.9,402.8,252.1,404.6,253.2

					z"/>

			</g>

		</g>

	</g>

</g>

</svg>